<?xml version="1.0" standalone="no"?>
<!DOCTYPE svg PUBLIC "-//W3C//DTD SVG 1.1//EN" "http://www.w3.org/Graphics/SVG/1.1/DTD/svg11.dtd" >
<svg>
<metadata>
Created by FontForge 20110222 at Mon Mar  7 07:59:18 2011
 By www-data
(c) 1998 Marijanco Galevski, Inventif Systems.  All Rights Reserved.
</metadata>
<defs>
<font id="MacedonianChurch" horiz-adv-x="473" >
  <font-face 
    font-family="Macedonian Church"
    font-weight="700"
    font-stretch="normal"
    units-per-em="909"
    panose-1="0 0 0 0 0 0 0 0 0 0"
    ascent="727"
    descent="-182"
    x-height="411"
    cap-height="665"
    bbox="-160 -258 1100 872"
    underline-thickness="23"
    underline-position="-13"
    unicode-range="U+0020-2122"
  />
    <missing-glyph />
    <glyph glyph-name="space" unicode=" " horiz-adv-x="237" 
 />
    <glyph glyph-name="exclam" unicode="!" horiz-adv-x="227" 
d="M159 227h-55q0 112 -42 296q-15 66 -15 113q0 39 22 77q25 44 62 44q36 0 62 -44q23 -39 23 -77q0 -47 -22 -136q-20 -80 -23 -99q-12 -69 -12 -174zM75 60q0 31 1 36q4 23 21 22l32 -1l40 2h11q12 -2 12 -15l-1 -45l1 -45q0 -12 -12 -14h-11l-40 2l-32 -1q-19 -1 -22 22
v37z" />
    <glyph glyph-name="quotedbl" unicode="&#x22;" horiz-adv-x="423" 
d="M150 353h-44l-41 227q0 28 17.5 51.5t45.5 23.5q37 0 55 -39q9 -17 9 -36zM361 353h-44l-42 227q0 28 18.5 51.5t45.5 23.5q37 0 55 -39q9 -17 9 -36z" />
    <glyph glyph-name="numbersign" unicode="#" horiz-adv-x="467" 
d="M439 399l24 -29q-49 -34 -88 -34t-81 47q-10 12 -23 25t-28 13q-73 0 -73 -195q23 18 61 35q42 19 65 19q27 0 61 -18t39 -18q17 0 36 15l19 -25q-24 -29 -52.5 -49.5t-48.5 -20.5t-44 16q-45 30 -71 30q-31 0 -64 -28q0 -69 31 -116q35 -54 101 -54q56 0 123 49l17 -20
q-66 -73 -170 -73q-87 0 -148 41q-88 59 -88 184v32q0 78 47 146q58 84 156 84q44 0 88 -18q22 -9 55 -29q21 -16 35 -16q11 0 21 7zM335 482h-42l-146 92q-28 18 -28 41q0 42 31 40l29 -2q8 -2 18 -13z" />
    <glyph glyph-name="dollar" unicode="$" horiz-adv-x="475" 
d="M256 -110h-47v94q-94 13 -164 47v147l20 -4q12 -59 39 -96q47 -65 105 -65v244q-67 39 -97 60q-39 27 -62 71.5t-23 76.5q0 41 29 87q34 54 89 67l64 15v61h47v-61q51 -11 98 -24q32 -9 57 -27v-134h-19l-7 26l-10 30l-22 36q-48 62 -97 62v-209l99 -61q78 -48 94 -129
l1 -27q3 -89 -57 -138q-18 -14 -35 -22q-23 -13 -38 -17l-39 -11l-25 -5v-94zM209 416v191q-55 -8 -75 -30q-16 -18 -16 -48q0 -41 19 -64l28 -22zM256 229v-217q53 16 68 26q29 20 29 62q0 16 -8 42q-4 14 -15 29q-5 8 -13 15l-10 11l-27 18z" />
    <glyph glyph-name="percent" unicode="%" horiz-adv-x="950" 
d="M313 -11h-61l345 595q-49 -20 -97 -20q-31 0 -58 8v-21q0 -121 -87 -216q-47 -51 -115 -51q-21 0 -41 8l-22 9q-22 9 -32 22q-12 17 -17 28q-12 27 -12 61q0 87 58 158q30 37 90 72q26 15 66 15q25 0 44 -6q7 -2 18 -7l36 -30q32 -16 77 -16q36 0 69 10q40 13 61 28
l27 19h38zM662 360q31 15 61 15q31 0 55 -14q59 -35 59 -111q0 -51 -29 -111q-67 -139 -182 -139q-51 0 -95 47q-26 34 -26 84q0 32 8 61q14 52 57 99q40 44 92 69zM317 592q-80 -87 -91 -195q0 -54 23 -63l22 -3q26 0 44 15q31 25 58 70q30 49 33 84l3 42l-3 40q-4 1 -17 7
l-19 13l-11 8l-9 2q-15 0 -33 -20zM687 282q-10 -15 -22 -36q-25 -43 -34 -71l-7 -21l-6 -19l-5 -17l-1 -16q-1 -15 10 -31.5t25 -20.5q45 0 66 16q31 23 54 66q27 51 30 86l3 37q4 54 -37 67l-14 2q-33 0 -62 -42z" />
    <glyph glyph-name="ampersand" unicode="&#x26;" horiz-adv-x="501" 
d="M163 256l162 97v55q5 33 32 33h83q12 0 12 -14l-4 -39q-4 -24 -10 -64q-2 -24 -2 -68q0 -122 15 -229q3 -18 -9 -24q-7 -3 -29 -3h-56q-29 0 -34 144q0 -14 0 169l-160 -95q0 -78 16 -191q3 -18 -9 -24q-7 -3 -29 -3h-57q-11 0 -15 2q-10 6 -12 35l-4 60q0 24 -3 82
q-2 50 -2 74v103q6 85 35 85h84q13 0 13 -14l-5 -39q-12 -94 -12 -132zM331 484h-42l-146 92q-28 17 -28 41q0 42 31 40l29 -2q9 -2 18 -13z" />
    <glyph glyph-name="quotesingle" unicode="'" horiz-adv-x="214" 
d="M152 353h-44l-41 227q0 29 17.5 52t45.5 23t46 -23t18 -52z" />
    <glyph glyph-name="parenleft" unicode="(" horiz-adv-x="368" 
d="M394 -168l-21 -31q-119 85 -186 209q-70 128 -70 271v34q0 145 69 271q66 120 187 210l21 -31q-73 -85 -100 -221q-20 -97 -20 -246t20 -245q27 -136 100 -221z" />
    <glyph glyph-name="parenright" unicode=")" horiz-adv-x="413" 
d="M139 -199l-22 31q72 83 99 221q20 98 20 245q0 150 -19 246q-27 136 -100 221l22 31q119 -90 185 -210q70 -128 70 -271v-34q0 -143 -68.5 -268.5t-186.5 -211.5z" />
    <glyph glyph-name="asterisk" unicode="*" horiz-adv-x="526" 
d="M255 546q0 12 -18.5 50.5t-18.5 56.5q0 23 15 37.5t38 14.5q22 0 37.5 -15t15.5 -37q0 -14 -19 -54t-19 -53q12 -3 18 -11q13 6 27 21q21 23 36 35q22 18 42 18q19 0 32.5 -19t13.5 -38q0 -24 -15.5 -39.5t-39.5 -15.5q-12 0 -36 4.5t-36 4.5q-5 0 -15 -2q3 -9 -4 -21
q12 -14 50 -33q27 -14 33 -18q16 -13 16 -31q0 -25 -14 -45q-16 -23 -40 -23q-45 0 -57 75q-1 20 -12 56q-12 -4 -22 -2q-10 -17 -10 -41q-6 -45 -12 -58q-14 -31 -46 -31q-24 0 -39 21t-15 46q0 28 49 48q33 14 49 33q-7 12 -8 21q-4 1 -8 1h-6q-11 0 -35.5 -4.5
t-37.5 -4.5q-55 0 -55 55q0 21 13 39t33 18q18 0 36 -12q12 -8 33 -31t36 -31q6 9 15 15z" />
    <glyph glyph-name="plus" unicode="+" horiz-adv-x="525" 
d="M230 260v56q0 19 -11 56.5t-11 51.5q0 9 6 14q17 10 38 10q11 0 32.5 -5t30.5 -5t9 -10q0 -14 -14 -53t-14 -59v-56q10 -3 23 -5q28 -5 42 -5q19 0 56.5 8t55.5 8q15 0 17 -6q6 -12 6 -22q0 -7 -3 -21.5t-3 -21t-11 -6.5q-2 0 -69 13q-31 6 -49 6q-19 -2 -51 -10
q-4 -1 -14 -4v-68q0 -21 12.5 -60.5t12.5 -51.5q0 -18 -28 -25q-12 -3 -26 -3q-57 0 -57 27q0 8 13 66q7 31 7 47v68q-12 3 -22 6q-24 6 -42 8q-20 2 -51 -5l-66 -15q-11 0 -14 6q-8 17 -8 33q0 14 8 33q4 7 17 7q6 0 60 -12q27 -6 43 -6q8 1 11 1q13 0 41 5q13 2 23 5z" />
    <glyph glyph-name="comma" unicode="," horiz-adv-x="212" 
d="M65 -152l-18 20q59 52 59 91q0 28 -3 42q-5 -1 -9 -1h-6q-27 0 -26 27q0 6 1 18v15v36q4 23 21 22l33 -1l39 2h9q14 -2 13 -15l-3 -60q-3 -58 -14 -87q-26 -67 -96 -109z" />
    <glyph glyph-name="hyphen" unicode="-" horiz-adv-x="348" 
d="M33 234h276v-55h-276v55z" />
    <glyph glyph-name="hyphen" unicode="&#x2010;" horiz-adv-x="348" 
d="M33 234h276v-55h-276v55z" />
    <glyph glyph-name="period" unicode="." horiz-adv-x="233" 
d="M60 60v37q4 22 23 21l32 -1l40 2h9q13 -2 13 -15l-1 -45l1 -45q0 -12 -13 -14h-9l-40 2l-32 -1q-16 -1 -19 5q-1 1 -3 22q-1 18 -1 32z" />
    <glyph glyph-name="slash" unicode="/" horiz-adv-x="427" 
d="M91 -16h-90l368 728h89z" />
    <glyph glyph-name="zero" unicode="0" horiz-adv-x="462" 
d="M280 -14q-53 0 -139 105q-99 121 -99 251q0 90 54 169q23 33 83 91l25 24q23 22 29 27q25 20 40 20q67 0 142 -145q68 -132 68 -209q0 -105 -76 -222q-72 -111 -127 -111zM343 102q27 0 51 39q22 36 22 65q0 82 -93 214q-89 127 -131 127q-34 0 -63 -49q-25 -44 -25 -81
q0 -87 98 -204q93 -111 141 -111z" />
    <glyph glyph-name="one" unicode="1" horiz-adv-x="382" 
d="M353 0h-280v29h71v465q0 35 -5 47q-8 18 -34 18q-15 0 -48 -9l-6 34q127 25 231 94v-649h71v-29z" />
    <glyph glyph-name="two" unicode="2" horiz-adv-x="469" 
d="M444 144l23 -19l-65 -136l-77 10q-116 15 -147 15q-71 0 -106 -25l-26 28l45 47q19 20 49 52l39 48q144 178 144 262q0 118 -101 118q-45 0 -80 -31q-7 -6 -39 -42l-58 55q78 147 223 147q69 0 118 -39q52 -42 52 -110q0 -134 -255 -426q34 17 74 17q19 0 61 -7
q24 -4 66 -4q32 0 60 40z" />
    <glyph glyph-name="three" unicode="3" horiz-adv-x="458" 
d="M81 488l-49 33q38 71 103 111.5t144 40.5q62 0 106 -27q51 -32 51 -90q0 -73 -96 -160l4 -6q57 -6 91 -36q38 -33 38 -88q0 -90 -99 -181q-110 -101 -272 -129l-21 49q244 66 244 205q0 46 -25 74.5t-71 28.5q-31 0 -86 -22l-19 35q63 23 114 69q60 56 60 114
q0 31 -24.5 48t-57.5 17q-40 0 -78 -25t-57 -61z" />
    <glyph glyph-name="four" unicode="4" horiz-adv-x="563" 
d="M322 29v157l-82 2q-127 3 -206 -31l-16 64l51 71q28 39 74 101q103 132 237 235l34 26q11 9 23 24l44 -20q-34 -72 -34 -162v-219q56 0 108 25l-33 -127q-21 6 -34 6l-15 2l-26 3v-157h66v-29h-267v29h76zM322 274v242q-26 -20 -46 -41q-10 -10 -38 -43q-47 -54 -66 -79
q-39 -49 -58 -86l93 5q37 2 115 2z" />
    <glyph glyph-name="five" unicode="5" horiz-adv-x="448" 
d="M421 678l25 -6q-18 -35 -26 -57q-1 -3 -23 -64q-15 0 -45.5 -2.5t-45.5 -2.5q-31 0 -151 16q-14 -21 -14 -38q0 -40 27 -56q20 -12 87 -23.5t99 -29.5q79 -43 79 -132q0 -118 -102 -214q-96 -90 -217 -104l-16 46q81 14 142 65q70 58 70 134q0 48 -36 78q-25 21 -83 43
q-62 23 -85 40q-38 28 -38 76q0 55 81 208q32 0 59 -4l91 -11q23 -3 39 -3q60 0 83 41z" />
    <glyph glyph-name="six" unicode="6" horiz-adv-x="501" 
d="M359 699l28 -26l-54 -54q-111 -111 -148 -182q-31 -59 -31 -113q0 -101 97 -178q20 -16 96 -66q69 63 69 110q0 52 -57 113t-108 61h-19q-7 0 -14 -2l-19 15q17 24 55 58q45 40 66 40q42 0 102 -68q66 -75 66 -147q0 -76 -92 -178q-86 -96 -130 -96q-54 0 -137 89
q-89 96 -89 182q0 177 319 442z" />
    <glyph glyph-name="seven" unicode="7" horiz-adv-x="448" 
d="M447 678l33 -28q-44 -61 -93 -166q-14 -28 -77 -175q-53 -122 -66 -165q-24 -78 -24 -130v-26q0 -38 5 -71q-59 22 -120 22q28 150 152 410q41 86 88 172h-172q-38 0 -45 -2q-24 -5 -30 -28l-46 16l31 100q6 20 19 60q57 -12 116 -12h74q101 0 155 23z" />
    <glyph glyph-name="eight" unicode="8" horiz-adv-x="465" 
d="M146 347q-87 56 -87 124q0 71 78 139q73 63 132 63q46 0 115 -56q75 -61 75 -119q0 -48 -46 -92q-18 -18 -56 -46q74 -44 100 -77q32 -40 32 -102q0 -61 -99 -131q-90 -64 -140 -64q-51 0 -128 68q-85 75 -85 146q0 83 109 147zM327 382q51 20 51 65q0 50 -78 102
q-70 47 -110 47q-18 0 -35.5 -18.5t-17.5 -36.5q0 -56 93 -110q27 -15 97 -49zM339 68q57 27 57 73q0 51 -65 97q-22 15 -76 47q-67 39 -82 39q-19 0 -35 -21.5t-16 -40.5q0 -41 39 -79q14 -14 63 -47l41 -28q39 -27 74 -40z" />
    <glyph glyph-name="nine" unicode="9" horiz-adv-x="483" 
d="M166 -37l-30 36q92 78 154 161q80 107 80 187q0 94 -86 164q-25 20 -105 74q-70 -62 -70 -111q0 -53 56.5 -113.5t108.5 -60.5q24 0 33 3l19 -15q-20 -29 -54 -59q-42 -38 -66 -38q-42 0 -102 67q-66 74 -66 146q0 68 56 137q24 30 79 76q18 16 47 39q24 17 40 17
q48 0 130 -78q96 -91 96 -187q0 -135 -172 -308q-41 -41 -148 -137z" />
    <glyph glyph-name="colon" unicode=":" horiz-adv-x="224" 
d="M73 393q0 30 1 36q4 21 22 21h32l50 1q12 0 12 -14l-1 -45l1 -45q0 -14 -12 -14h-11l-39 1l-32 -1q-16 0 -19 8q-2 3 -3 23q-1 17 -1 29zM73 60q0 30 1 36q4 23 22 22l32 -1l39 2h11q12 -2 12 -15l-1 -45l1 -45q0 -13 -12 -14h-11l-39 2l-32 -1q-16 0 -19 8q-2 3 -3 21
t-1 30z" />
    <glyph glyph-name="semicolon" unicode=";" horiz-adv-x="224" 
d="M74 393q0 30 1 36q4 21 22 21h32l51 1q11 -2 11 -14l-1 -45l1 -45q0 -13 -11 -14h-11l-40 1l-32 -1q-14 0 -17 6q-6 11 -6 54zM78 -152l-18 20q59 52 59 91q0 27 -4 42q-6 -1 -16 -1q-17 0 -22 11q-3 6 -3 26v23q0 30 1 36q4 23 22 22l32 -1l39 2h10q13 -2 12 -15l-3 -60
q-3 -58 -14 -87q-26 -67 -95 -109z" />
    <glyph glyph-name="less" unicode="&#x3c;" horiz-adv-x="632" 
d="M565 141v-142l-497 296v83l497 311v-145l-323 -207z" />
    <glyph glyph-name="equal" unicode="=" horiz-adv-x="542" 
d="M51 465h447v-99h-447v99zM51 257h447v-98h-447v98z" />
    <glyph glyph-name="greater" unicode="&#x3e;" horiz-adv-x="632" 
d="M81 141l323 196l-323 207v145l498 -311v-83l-498 -296v142z" />
    <glyph glyph-name="question" unicode="?" horiz-adv-x="444" 
d="M233 185h-44q-1 9 -1 13q0 42 23 93q12 26 30.5 55t40.5 64q18 36 18 86q0 58 -31 115q-36 67 -90 67q-30 0 -57 -46q-21 -35 -29 -72h-51q9 66 65 139q62 80 124 80q55 0 132 -81q81 -86 81 -159q0 -65 -17 -108q-31 -79 -120 -140q-37 -26 -52 -44q-22 -27 -22 -62z
M154 82q4 22 22 22h32l50 1q14 0 13 -14l-2 -46l2 -43q1 -14 -13 -16h-10l-40 2l-32 -1q-19 -1 -22 22v36.5v36.5z" />
    <glyph glyph-name="at" unicode="@" horiz-adv-x="935" 
d="M347 665h251v-40h-52v-249h7l42 84q6 11 19 40q40 85 65 117q47 61 111 61q45 0 82 -17l-8 -26q-10 -22 -13 -33q0 -1 -3 -42l-2 -29h-19l-31 12q-24 12 -50 12q-47 0 -96 -77q-17 -27 -59 -117q132 -19 201.5 -102t69.5 -219h57v-40h-269v40h44q0 107 -25 180
q-37 109 -123 116v-296h49v-40h-244v40h48v296q-85 0 -123 -114q-25 -76 -25 -182h44v-40h-270v40h58q0 135 70 218.5t201 102.5q-40 85 -59 116q-50 78 -96 78q-20 0 -50 -12l-30 -12h-19l-2 29q-1 19 -3 46q-10 19 -13 29l-9 26q36 17 83 17q63 0 110 -60q22 -28 66 -118
q20 -41 61 -124h6v249h-52v40z" />
    <glyph glyph-name="A" unicode="A" horiz-adv-x="669" 
d="M262 638h-73v40h295v-40h-74l174 -598h66v-40h-285v40h72l-71 246q-24 -111 -81 -197q-68 -103 -144 -103q-52 0 -79.5 31t-27.5 84q0 94 84 241q31 54 77 124q13 20 40 61q29 46 29 84q0 17 -2 27zM338 376l-43 151q-40 -54 -66 -100q-11 -18 -25 -43q-61 -111 -67 -179
v-24q8 -47 54 -47q52 0 99 93q39 77 48 149z" />
    <glyph glyph-name="B" unicode="B" horiz-adv-x="593" 
d="M37 665l333 -2q24 0 72.5 2.5t72.5 2.5q30 0 30 -33q0 -7 -16 -45q-9 -21 -13 -55q-5 -41 -9 -55q-6 -21 -24 -21q-15 0 -21 12q-2 4 -9 29q-22 79 -60 107q-25 18 -72 18h-58v-238q28 -27 50 -37q17 -9 60 -19q9 -2 139 -30q56 -21 56 -121v-119q0 -30 -17.5 -47
t-46.5 -17l-467 3v40h79v585h-79v40zM263 40q38 -4 88 -4q26 0 33 3q24 10 29 16q9 11 9 49v107q0 24 -10 35q-6 7 -31 21q-55 30 -67 38q-28 19 -51 46v-311z" />
    <glyph glyph-name="C" unicode="C" horiz-adv-x="795" 
d="M695 665v-40h-78v-585h32q15 0 45.5 4t45.5 4q21 0 32.5 -15t11.5 -36q0 -22 -16 -67q-26 -73 -30 -112q-2 -19 -6 -28q-7 -16 -23 -16q-19 0 -26 24q-9 32 -23 88q-15 60 -33 81q-28 33 -93 33h-497v40h79v585h-79v40h292v-40h-66v-585h206v585h-66v40h292z" />
    <glyph glyph-name="D" unicode="D" horiz-adv-x="657" 
d="M496 665v-40h-54q20 -210 85 -460q32 -124 52 -124q4 0 17.5 5.5t25.5 5.5q28 0 28 -32q0 -8 -13 -42t-20 -68q-4 -26 -9 -54q-8 -25 -27 -25q-23 0 -29 42q-12 83 -64 111q-30 16 -97 16h-98q-89 0 -118 -13q-45 -20 -64 -92q-4 -13 -11 -41q-10 -23 -27 -23
q-15 0 -22 17q-6 33 -16 87q-4 17 -25 73q-3 8 -3 16q0 28 37 28q6 0 17.5 -2t17.5 -2q20 0 27 24q3 11 8 47q19 151 123 325q25 41 35 65q18 41 18 73q0 43 -56 43h-52v40h314zM247 40h166l-19 71q-27 100 -39 153q-9 41 -31 153l-10 52q-63 -79 -107 -199
q-40 -108 -40 -168q0 -40 21 -52q16 -10 59 -10z" />
    <glyph glyph-name="E" unicode="E" horiz-adv-x="671" 
d="M344 333h35q-6 22 -23 39.5t-37 17.5q-69 0 -107 -44q11 -66 24 -109q27 -87 27 -154q0 -26 -9 -50q13 -7 35 -7q145 0 177 143h-48v39h249v-39l-35 -1q-42 -77 -116 -128q-79 -54 -162 -54q-93 0 -155 18q2 16 2 24q0 56 -57.5 126.5t-74.5 100.5q-29 53 -29 118
q0 162 110 242q87 63 215 63q90 0 156 -34q77 -38 107 -115h45v-40h-235v40h30q-23 109 -126 109q-72 0 -108 -72q-28 -56 -28 -136q0 -24 3 -47q66 59 159 59q57 0 105.5 -29t67.5 -80h39v-41h-236v41z" />
    <glyph glyph-name="F" unicode="F" horiz-adv-x="858" 
d="M593 0h-296v40h79v85l-37 -11q-50 -15 -94 -15q-81 0 -140 44q-66 49 -66 127q0 81 74 154q41 41 130 96q41 25 61 40q35 25 72 56v9h-80v40h298v-40h-80v-9q49 -40 71 -56q11 -8 62 -40q91 -57 129 -95q75 -74 75 -155q0 -77 -66 -126q-60 -45 -140 -45q-44 0 -94 15
l-37 11v-85h79v-40zM514 569v-411q20 -5 45 -5q63 0 100 50q34 46 34 111q0 68 -51 133q-36 45 -128 122zM376 569q-66 -55 -92 -81q-87 -87 -87 -174q0 -67 33 -111q37 -50 102 -50q22 0 44 5v411z" />
    <glyph glyph-name="G" unicode="G" horiz-adv-x="527" 
d="M37 665h357q43 0 90 5q5 1 26 5q18 3 24 3q31 0 31 -37q0 -5 -19 -56q-7 -19 -12 -53q-5 -38 -9 -52q-6 -21 -24 -21q-15 0 -21 12q-2 4 -9 29q-22 79 -60 107q-25 18 -72 18h-76v-585h79v-40h-305v40h79v585h-79v40z" />
    <glyph glyph-name="H" unicode="H" horiz-adv-x="678" 
d="M373 417l217 -377h81v-40h-339v40h90l-148 251l-55 -106q-12 -23 -26 -61q-16 -44 -16 -62q0 -23 43 -23q16 0 24 1v-40h-230v40q10 -1 14 -1q51 0 85 43q20 26 61 113l13 28l57 118l-166 284h-63v40h297v-40h-71l100 -162q44 95 79 140q58 75 125 75q19 0 52 -8
q41 -9 41 -21q0 -11 -26 -53l-9 -50q1 -12 -3 -24q-5 0 -14 -1h-13q-16 0 -41.5 17t-35.5 17q-61 0 -123 -138z" />
    <glyph glyph-name="I" unicode="I" horiz-adv-x="727" 
d="M473 460l-210 -256v-164h66v-40h-292v40h79v585h-79v40h292v-40h-66v-358l210 257v101h-65v40h291v-40h-79v-585h79v-40h-291v40h65v420z" />
    <glyph glyph-name="J" unicode="J" horiz-adv-x="463" 
d="M138 154q0 -128 79 -128q35 0 47 104q6 52 6 142v353h-79v40h305v-40h-79l2 -401q1 -106 -48 -167q-53 -66 -156 -66q-88 0 -142 36q-63 43 -63 127h128z" />
    <glyph glyph-name="K" unicode="K" horiz-adv-x="675" 
d="M263 372h35l14 26l15 34l20 41q52 106 74 137q49 68 115 68q47 0 83 -17q-7 -18 -20 -54q-1 -4 -3 -30q-3 -30 -3 -46h-19l-31 12q-22 12 -51 12q-56 0 -155 -194q138 -31 201.5 -106.5t63.5 -214.5h57v-40h-258v40h37q0 139 -29 199q-38 78 -146 99v-298h59v-40h-285v40
h79v585h-79v40h292v-40h-66v-253z" />
    <glyph glyph-name="L" unicode="L" horiz-adv-x="636" 
d="M338 40h62q-34 103 -63 232q-10 51 -34 170l-16 79q-20 -23 -54 -85q-73 -134 -73 -229q0 -44 1 -53q4 -42 24.5 -42t25.5 -41q1 -7 1 -57q0 -24 -34 -24q-8 0 -24 2.5t-25 2.5h-12q-8 0 -23 -1.5t-22 -1.5q-32 0 -35 34v34q0 63 29 136q15 41 60 127l102 195
q28 59 28 83q0 16 -7.5 20t-24.5 4h-65v40h313v-40h-58q34 -248 116 -520q5 -16 9 -34l9 -31h69v-40h-279v40z" />
    <glyph glyph-name="M" unicode="M" horiz-adv-x="1025" 
d="M413 40l-104 482q-109 -168 -109 -304q0 -28 9 -100q5 -40 5 -57v-18q0 -9 1 -18q0 -17 -4 -24q-6 -11 -32 -11q-9 0 -26 2t-24 3h-11q-8 0 -24 -1.5t-24 -1.5q-33 0 -33 68q0 124 74 238q18 28 75 104q50 67 71 105q29 53 29 95v11q-2 8 -2 12h-70v40h272v-40h-54
l121 -558l105 558h-41v40h255v-40h-61l127 -585h65v-40h-254v40h42l-108 500l-93 -500h50v-40h-277v40h50z" />
    <glyph glyph-name="N" unicode="N" horiz-adv-x="727" 
d="M263 347v-307h66v-40h-292v40h79v585h-79v40h292v-40h-66v-232h209l1 232h-65v40h291v-40h-79v-585h79v-40h-291v40h65l-1 307h-209z" />
    <glyph glyph-name="O" unicode="O" horiz-adv-x="539" 
d="M309 691q9 0 22 -13l18 -20q28 -29 90 -83q65 -57 93 -105q34 -58 34 -133q0 -66 -25 -119q-22 -46 -73 -98q-26 -26 -100 -99q-47 -46 -64 -46q-18 0 -97 68q-85 74 -112 109q-56 74 -56 170q0 101 68 194q42 57 118 118q14 11 40 34q21 23 44 23zM246 565
q-49 -7 -82 -47.5t-33 -91.5q0 -79 143 -220q40 -39 48 -49q26 -32 30 -60q43 17 75 52q36 37 43 79q2 12 2 16t-2 16q-8 44 -61 106q-25 28 -65 73l-58 64q-32 37 -40 62z" />
    <glyph glyph-name="P" unicode="P" horiz-adv-x="727" 
d="M263 625v-585h66v-40h-292v40h79v585h-79v40h662v-40h-79v-585h79v-40h-291v40h65v585h-210z" />
    <glyph glyph-name="Q" unicode="Q" horiz-adv-x="917" 
d="M606 40h86q32 0 45 6q26 12 26 47l-1 136q-1 26 -8.5 34t-36.5 17q-67 22 -111 58v-298zM379 664l306 1v-40h-79v-234q38 -33 97 -55q66 -23 110 -21l39 2q39 2 52 -21q6 -11 6 -41v-189q0 -38 -11 -52t-46 -14h-473v40h79v585h-52q-35 0 -49 -3q-17 -4 -45 -21
q-12 -7 -40 -72l-40 -93q-73 -131 -73 -229q0 -44 1 -53q4 -42 24.5 -42t25.5 -41q1 -7 1 -57q0 -24 -34 -24q-8 0 -24 2.5t-25 2.5h-12q-8 0 -23 -1.5t-22 -1.5q-32 0 -35 34v34q0 63 29 136q15 41 60 127l102 195q28 59 28 83q0 16 -7.5 20t-24.5 4h-65v40q15 -3 85 -3
q23 0 68 1q49 1 67 1z" />
    <glyph glyph-name="R" unicode="R" horiz-adv-x="563" 
d="M263 254v-214h79v-40h-305v40h79l1 561q0 77 231 77q99 0 164 -45q76 -51 76 -145q0 -75 -42 -127q-45 -57 -118 -57q-28 0 -51 10q-10 6 -27 15l-21 10zM263 311l61 77q18 -16 35 -16q62 0 62 118q0 148 -80 148q-54 0 -70 -66q-8 -33 -8 -133v-128z" />
    <glyph glyph-name="S" unicode="S" horiz-adv-x="591" 
d="M632 430h-249v39h40q0 169 -102 169q-66 0 -94 -74q-20 -52 -20 -130q0 -92 35 -238q20 -80 20 -133q0 -15 -7 -40l-4 -14q6 -5 22 -5q65 0 111 86q40 74 40 145q0 17 -1 25h-40v40h249v-40h-39q0 -116 -105 -201q-98 -80 -217 -80q-41 0 -70 12v13q0 37 -8 60
q-14 40 -63 103q-58 75 -77 127q-13 37 -13 90q0 128 81.5 211t209.5 83q106 0 175 -53.5t87 -155.5h39v-39z" />
    <glyph glyph-name="T" unicode="T" horiz-adv-x="665" 
d="M294 40v585h-40q-57 0 -72 -13q-29 -25 -54 -125l-2 -8q-2 -10 -5 -20q-7 -20 -24 -20q-28 0 -28 43q0 38 -17 83q-8 20 -19 45q-10 22 -10 32q0 36 42 36q80 -15 128 -14l34 1l316 -1q43 -1 128 14q17 0 29 -10t12 -26q0 -6 -28 -77q-18 -46 -18 -83q0 -20 -2 -26
q-6 -17 -25 -17q-17 0 -26 28q-3 9 -14 51q-18 68 -44 91q-18 16 -55 16h-59v-585h80v-40h-305v40h78z" />
    <glyph glyph-name="U" unicode="U" horiz-adv-x="624" 
d="M407 0h-50l-4 -73v-43q0 -46 11 -98q2 -9 2 -13q0 -2 -2 -10l-89 -7q0 58 14 182l7 62h-86l-151 625h-39v40h255v-40h-65l119 -506q34 159 48 219q29 123 59 216q40 124 122 124q21 0 44 -6q29 -8 37 -20q-1 -9 -8 -29q-12 -24 -12 -102h-14l-17 9q-8 5 -18 9.5t-21 4.5
q-80 0 -130 -226q-9 -46 -28 -137l-15 -69q-4 -23 -17 -72h48v-40z" />
    <glyph glyph-name="V" unicode="V" horiz-adv-x="580" 
d="M105 40l-1 419q0 141 59 184q49 35 198 35q78 0 134 -37q64 -42 64 -116q0 -67 -59 -107q-45 -30 -86 -30q-14 -2 -26 -2q-21 0 -46 15l-60 -32q43 -34 86 -52q23 -10 82 -22q44 -9 49 -11q41 -14 53 -40q7 -15 7 -44l1 -117l-2 -32q-2 -24 -29 -39.5t-53 -15.5l-450 4
v40h79zM253 40h117q28 0 37 19q5 12 5 45v107q0 24 -10 35q-6 8 -31 21q-51 28 -67 38q-29 19 -51 46v-311zM253 384l64 47q8 -4 18 -4q32 0 45 14q19 21 22 25q10 21 10 75q0 97 -76 97q-52 0 -71 -65q-13 -44 -13 -130v-31q0 -14 1 -28z" />
    <glyph glyph-name="W" unicode="W" horiz-adv-x="919" 
d="M605 40h85q33 0 46 6q26 12 26 47l-1 136q-1 26 -8.5 34t-36.5 17q-67 22 -111 58v-298zM263 347v-307h66v-40h-292v40h79v585h-79v40h292v-40h-66v-232l196 -2l-1 234h-79v40h305v-40h-79v-234q37 -35 108 -59q62 -21 98 -20l39 1q6 1 17 1q42 0 42 -62v-186
q0 -38 -11 -52t-47 -14h-472v40h79l1 307h-196z" />
    <glyph glyph-name="X" unicode="X" horiz-adv-x="710" 
d="M408 -139q-7 -27 -9 -47q0 -43 -28 -43q-26 0 -57 120l-3 11q-7 31 -16 65q-13 30 -45 33h-213v40h79v585h-79v40h292v-40h-66v-585h206v585h-66v40h292v-40h-78l-2 -587h89v-38h-219q-21 -5 -37 -31q-21 -34 -40 -108z" />
    <glyph glyph-name="Y" unicode="Y" horiz-adv-x="568" 
d="M539 474l-128 1q-13 0 -13 19q0 148 -78 148q-47 0 -67 -50q-10 -26 -13 -77l-3 -55q-3 -60 27 -93q18 -20 71 -30q86 -17 100 -22q60 -19 94.5 -59.5t34.5 -95.5q0 -87 -42 -136q-45 -53 -132 -53q-59 0 -114 19q-22 8 -45 17q-27 9 -46 9q-45 0 -41 -65l2 -35
q0 -6 -13 -6q-6 0 -19 1t-19 1q-22 0 -45 -10q-15 -7 -18 -7q-21 0 -21 59q0 55 30.5 87.5t85.5 32.5q44 0 146 -35q38 -13 50 -13q74 0 74 153q0 63 -36 94q-31 27 -98 34q-82 9 -116 26q-77 38 -77 138q0 98 75 155q69 52 170 52q88 0 157 -47q79 -53 79 -137
q0 -20 -12 -20z" />
    <glyph glyph-name="Z" unicode="Z" horiz-adv-x="581" 
d="M206 304l-2 55q92 0 123 15q50 24 50 103v31q0 130 -83 130q-95 0 -95 -103q0 -16 3 -37q0 -11 -13 -11h-17q-57 0 -121 -11q-9 -2 -11 0t-2 19q0 104 100 151q68 32 162 32t162 -39q82 -47 82 -134q0 -75 -62 -118q-24 -17 -97 -41l-9 -3v-17q17 -2 54 -13
q56 -17 85 -41q51 -43 51 -118q0 -80 -54 -131.5t-135 -51.5q-23 0 -53 6q-8 2 -74 19q-54 15 -68 15q-38 0 -38 -59q0 -6 2 -17.5t2 -16.5q0 -13 -9 -13l-22 2q-22 2 -35 2q-12 0 -25.5 -6.5t-16.5 -6.5q-27 0 -27 65q0 47 24 81q27 38 73 38q22 0 64 -14q32 -12 64 -23
q55 -18 85 -18q76 0 76 129v19q0 10 1 21q0 8 -1 13q-8 97 -110 97h-83z" />
    <glyph glyph-name="bracketleft" unicode="[" horiz-adv-x="1052" 
d="M260 40h192v585h-65v40h278v-40h-66v-585h193v585h-66v40h291v-40h-79v-585h79v-40h-983v40h79v585h-79v40h292v-40h-66v-585z" />
    <glyph glyph-name="backslash" unicode="\" horiz-adv-x="527" 
d="M37 665h357q43 0 90 5q5 1 26 5q18 3 24 3q31 0 31 -37q0 -5 -19 -56q-7 -19 -12 -53q-5 -38 -9 -52q-6 -21 -24 -21q-15 0 -21 12q-2 4 -9 29q-22 79 -60 107q-25 18 -72 18h-76v-585h79v-40h-305v40h79v585h-79v40zM344 872q15 0 39 -6q29 -8 31 -17q5 -24 -70 -85
q-14 -11 -48 -30q-37 -20 -49 -20q-17 0 -17 5l2 10q3 8 14 18l42 40q9 11 41 66q11 19 15 19z" />
    <glyph glyph-name="bracketright" unicode="]" horiz-adv-x="674" 
d="M263 372h35l14 26l15 34l20 41q52 106 74 137q49 68 115 68q47 0 83 -17q-7 -18 -20 -54q-1 -4 -3 -30q-3 -30 -3 -46h-19l-31 12q-22 12 -51 12q-56 0 -155 -194q138 -31 201.5 -106.5t63.5 -214.5h57v-40h-258v40h37q0 139 -29 199q-38 78 -146 99v-298h59v-40h-285v40
h79v585h-79v40h292v-40h-66v-253zM402 872q15 0 39 -6q29 -8 32 -17q6 -25 -71 -85q-16 -12 -47 -30q-37 -20 -49 -20q-17 0 -17 5q0 13 16 28q20 19 42 40q14 17 35 54q18 31 20 31z" />
    <glyph glyph-name="asciicircum" unicode="^" horiz-adv-x="736" 
d="M473 40l-1 252q-60 -20 -132 -20q-96 0 -149 40.5t-75 129.5t-22 183h-57v40h285v-40h-64q0 -17 -1 -51t-1 -51q0 -90 25 -129q21 -33 59 -55t76 -22q29 0 56 13l1 295h-59v40h285v-40h-79v-585h79v-40h-291v40h65z" />
    <glyph glyph-name="underscore" unicode="_" horiz-adv-x="475" 
d="M475 -119h-475l-2 57h477v-57z" />
    <glyph glyph-name="grave" unicode="`" horiz-adv-x="684" 
d="M399 196q0 -96 10 -169q3 -18 -9 -24q-6 -3 -28 -3h-54q-22 0 -28 16q-3 10 -5 101l-2 79q-76 -15 -124 -154q-9 -26 -9 -27q-8 -17 -20 -16l-21 1h-20l-23 -1l-27 -2q-23 -2 -23 17q0 12 16 45q72 150 215 166q-53 113 -126 113q-14 0 -30 -12q-9 -9 -18 -9
q-11 0 -11 21q0 32 -7 54l-14 44q0 16 27 16q54 0 127 -88q50 -60 89 -134l1 145q0 34 2 42q5 24 28 24h68q22 0 22 -13q-8 -35 -8 -94v-104l20 34q36 62 84 114q67 74 114 74q27 0 27 -16q-21 -53 -21 -98q0 -21 -11 -21q-7 0 -15 7q-13 10 -15 11q-5 3 -17 3
q-71 0 -126 -113q140 -15 209 -151q22 -43 22 -60q0 -19 -23 -17l-28 2l-23 1l-41 -1q-13 0 -25 33q-53 151 -129 164z" />
    <glyph glyph-name="a" unicode="a" horiz-adv-x="462" 
d="M223 441h97q10 0 12 -5q0 -22 6 -44l15 -55l7 -28q34 -135 58 -206q6 -18 34 -95q0 -8 -19 -8h-97q-9 0 -13 33q-5 14 -10 31l-11 37l-12 43q-47 -155 -150 -155q-50 0 -77 38q-25 34 -25 86q0 47 46 112q16 23 73 88q12 14 41 45q16 17 16 27t-5 26.5t-5 24.5q0 5 19 5z
M231 348q-95 -104 -95 -174q0 -27 14.5 -46t41.5 -19q32 0 56.5 23t24.5 54q0 16 -6 36l-10 33l-12 42z" />
    <glyph glyph-name="b" unicode="b" horiz-adv-x="467" 
d="M239 410h-59q-11 -81 -11 -166q136 0 208 -57q33 -27 54 -68t21 -83q0 -25 -15 -32q-9 -4 -39 -4h-317q-23 0 -28 25q-1 7 -1 44q0 50 2 130l5 140q0 31 -1 62q4 40 32 40h209q6 0 116 4q44 2 44 -22q0 -17 -21 -53q-15 -26 -39 -88l-44 2q4 21 4 41v30q-4 37 -36 48
q-21 7 -84 7zM168 32h152q2 7 2 17v14q0 138 -153 138q-2 -11 -2 -20z" />
    <glyph glyph-name="c" unicode="c" horiz-adv-x="543" 
d="M176 32h144l-6 221q-3 113 8 157q8 33 29 32l39 -1l32 2h11q13 -2 13 -14q0 -9 -1 -13q-12 -44 -14 -106l-2 -108v-50q0 -99 26 -106q7 -2 17 0q11 4 19 5q15 4 23 4q27 0 27 -23q0 -15 -19 -62q-4 -12 -15 -46l-32 -101h-53q11 37 11 70q0 57 -27 78q-39 31 -151 29
l-74 -1l-98 -4q-22 -1 -30 60q-6 43 -4 118q3 127 3 80q0 95 1 104q6 86 35 85l39 -1l34 2h9q12 -2 12 -14q0 -19 -5 -51l-8 -52q-2 -30 -2 -70q0 -42 2 -72q7 -106 7 -152z" />
    <glyph glyph-name="d" unicode="d" horiz-adv-x="525" 
d="M292 -1h-73q-96 0 -96 -73q0 -40 25 -98l-48 -7q-31 75 -74 135q-9 13 -17.5 30.5t-8.5 27.5q0 21 26 21h18q40 0 55 22q25 36 63 155.5t38 163.5q0 16 -7.5 35t-7.5 25q0 8 22 7l57 -2q-8 0 69 3q20 1 20 -22q0 -38 14 -100q9 -39 27 -97q41 -130 62 -168q14 -25 33 -23
l9 1q27 0 27 -21q0 -11 -8 -28q-20 -31 -58 -92q-22 -42 -35 -73l-48 7q26 62 26 98q0 73 -110 73zM130 32h216q-16 26 -33 72q-45 122 -58 211l-6 42h-14q-10 -55 -26 -112q-19 -70 -55 -162q-11 -28 -24 -51z" />
    <glyph glyph-name="e" unicode="e" horiz-adv-x="467" 
d="M439 399l24 -29q-49 -34 -88 -34t-81 47q-10 12 -23 25t-28 13q-73 0 -73 -195q23 18 61 35q42 19 65 19q27 0 61 -18t39 -18q17 0 36 15l19 -25q-24 -29 -52.5 -49.5t-48.5 -20.5t-44 16q-45 30 -71 30q-31 0 -64 -28q0 -69 31 -116q35 -54 101 -54q56 0 123 49l17 -20
q-66 -73 -170 -73q-87 0 -148 41q-88 59 -88 184v32q0 78 47 146q58 84 156 84q44 0 88 -18q22 -9 55 -29q21 -16 35 -16q11 0 21 7z" />
    <glyph glyph-name="f" unicode="f" horiz-adv-x="675" 
d="M313 -244v266q-48 -33 -112 -33q-70 0 -117 42.5t-47 112.5q0 101 174 229q66 49 84 80q14 25 12 61l-4 74l-4 52q-1 14 39 24q31 8 52 8q16 0 15 -19q0 -7 -1 -18l-6 -121q-2 -46 24 -80q15 -19 71 -61q83 -62 115 -97q59 -64 59 -132t-47.5 -111.5t-117.5 -43.5
q-61 0 -110 33v-266h-79zM312 55l-7 345l-37 -34q-79 -72 -93 -98q-19 -33 -19 -77q0 -60 28 -100q31 -45 89 -45q17 0 39 9zM399 400l-6 -345q22 -9 38 -9q56 0 89 46q28 40 28 99q0 53 -28 92q-8 11 -60 59l-38 35q-11 14 -23 23z" />
    <glyph glyph-name="g" unicode="g" horiz-adv-x="387" 
d="M223 410h-57q-12 -92 -12 -154q0 -90 16 -229q0 -16 -3 -19q-7 -8 -34 -8h-57q-25 0 -34 59q-6 43 -5 115q3 139 3 79q0 117 -1 104q6 86 37 85l39 -1q21 -1 116 1l124 2q4 0 9 1h6q30 0 30 -21q0 -13 -17 -41l-18 -37q-12 -24 -21 -57q-1 -5 -4 -13l-40 4q6 60 6 49
q0 46 -18.5 63.5t-64.5 17.5z" />
    <glyph glyph-name="h" unicode="h" horiz-adv-x="437" 
d="M39 441h62q8 0 24 3q13 0 21 -23q5 -12 10 -25q22 -58 55 -133l17 -39q30 107 44 138q41 90 99 90q14 0 38 -8q27 -11 27 -22q0 -15 -7 -20q-16 -13 -16 -60q0 -31 1 -39l-18 -11q-24 26 -49 26q-34 0 -62 -58q-8 -16 -32 -87q14 -37 36 -85l102 -217l26 -46
q19 -34 19 -45q0 -13 -13 -13h-88q-19 0 -40 48q-1 4 -33 74l-44 97l-28 65q-54 -186 -92 -248q-22 -36 -50 -36q-34 0 -34 22q0 13 20 41q36 51 75 137t53 147l-28 65l-27 57l-56 122q-30 66 -30 64q0 19 18 19z" />
    <glyph glyph-name="i" unicode="i" horiz-adv-x="496" 
d="M163 256l162 97v55q5 33 32 33h83q12 0 12 -14l-4 -39q-4 -24 -10 -64q-2 -24 -2 -68q0 -122 15 -229q3 -18 -9 -24q-7 -3 -29 -3h-56q-29 0 -34 144q0 -14 0 169l-160 -95q0 -78 16 -191q3 -18 -9 -24q-7 -3 -29 -3h-57q-11 0 -15 2q-10 6 -12 35l-4 60q0 24 -3 82
q-2 50 -2 74v103q6 85 35 85h84q13 0 13 -14l-5 -39q-12 -94 -12 -132z" />
    <glyph glyph-name="j" unicode="j" horiz-adv-x="229" 
d="M102 617h32l49 1q7 0 10 -3.5t3 -10.5l-1 -45l1 -44q0 -15 -13 -15h-10l-39 1l-32 -1q-19 -1 -23 22v38q0 31 1 36q4 21 22 21zM65 254q0 96 1 103q6 86 36 85l32 -1l39 2h10q13 -2 13 -14q-15 -70 -15 -172q0 -54 3 -139q5 -119 5 -138q1 -43 -14 -75q-24 -51 -82 -51
q-9 1 -14 1l-81 9l-41 3q-42 3 -48 -17q-10 -32 -16 -38l-28 -25l-25 21q12 130 94 130q19 0 31 -5q22 -9 56 -20q14 -5 23 -5q40 0 40 48q0 13 -1 22q-18 169 -18 276z" />
    <glyph glyph-name="k" unicode="k" horiz-adv-x="439" 
d="M165 239h8q117 213 212 213q42 0 42 -15q0 -10 -8 -21q-17 -24 -20 -77l-1 -20l-24 -1q-14 30 -44 30q-24 0 -56 -27q-20 -17 -53 -63l-20 -28q97 -27 156 -83q73 -69 73 -138q0 -12 -24 -12h-12l-34 3q-8 0 -24 -2t-24 -2q-14 0 -21 41q-10 59 -40 103q-34 49 -86 66
q0 -108 10 -179q2 -15 -2 -19q-8 -8 -42 -8h-45q-24 0 -33 59q-6 43 -5 116q3 140 3 78q0 114 -1 105q6 87 36 85l25 -2l48 3q9 1 10 0q12 -3 12 -14q0 -19 -5 -50q-7 -41 -8 -50q-3 -34 -3 -91z" />
    <glyph glyph-name="l" unicode="l" horiz-adv-x="439" 
d="M204 368q-5 -20 -27 -70q-53 -121 -53 -179q0 -39 16 -72q1 -2 11 -19q9 -13 9 -17q0 -12 -18 -12l-51 1l-45 -2q-19 -1 -24.5 6t-5.5 27q0 64 49 151q16 29 55 88q13 19 37.5 59t24.5 65q0 12 -5 28q-2 7 0 11q5 8 19 8h85q19 0 24.5 -3.5t5.5 -20.5q0 -27 18 -98
q13 -53 23 -83q34 -107 52 -152q11 -28 29 -70q0 -15 -16 -15q-6 1 -10 1l-39 1l-38 -1q-22 -1 -31.5 18t-48.5 159l-13 47l-10 36q-3 12 -9 43z" />
    <glyph glyph-name="m" unicode="m" horiz-adv-x="654" 
d="M181 441h74q21 0 27 -15q0 -2 4 -37q8 -71 58 -266q11 76 49 154q25 51 25 73q0 15 -3.5 43.5t-3.5 42.5q0 5 11 5h88q27 0 28 -15q14 -150 35 -225q10 -34 32 -87q27 -65 34 -85q3 -7 3 -15q0 -14 -21 -14h-64q-34 0 -71 103q-20 55 -39 148l-8 39q-66 -144 -66 -247
v-20q1 -5 0 -14t-8 -9h-73q-16 0 -20 3q-12 9 -22 41q-31 96 -67 282q-85 -107 -85 -218q0 -19 6 -42q4 -16 17 -50q3 -8 3 -10q0 -6 -10 -6h-82q-16 0 -16 42q0 81 83 214q24 38 36 61q24 45 24 76q-1 6 -1 10q-2 12 -2 17q0 13 7 18q4 3 18 3z" />
    <glyph glyph-name="n" unicode="n" horiz-adv-x="492" 
d="M316 220l-155 2q0 -20 1 -33l5 -69q0 -16 5 -46.5t5 -46.5q0 -20 -17 -25q-6 -2 -34 -2h-44q-22 0 -30 60q-7 43 -6 115q2 209 2 78q0 117 -1 104q5 86 35 85l28 -1l43 2h10q13 -2 13 -14q0 -22 -9 -92q-5 -39 -5 -76l154 -3v102q6 83 37 82l28 -1h30q9 2 13 2h11
q13 -2 13 -14q0 -10 -4 -27q-5 -22 -6 -28q-7 -54 -7 -118q0 -90 16 -229q0 -20 -16 -25q-6 -2 -34 -2h-44q-24 0 -34 51q-7 36 -6 99q3 139 3 70z" />
    <glyph glyph-name="o" unicode="o" horiz-adv-x="408" 
d="M37 193q0 109 68 202q59 80 102 80q48 0 104 -53q73 -69 73 -174q0 -68 -53 -168q-58 -112 -119 -112t-120 83q-55 78 -55 142zM134 369q-30 -36 -30 -77q0 -64 40 -128q50 -80 128 -80q12 0 18 1q16 32 16 70q0 80 -46 141q-49 64 -126 73z" />
    <glyph glyph-name="p" unicode="p" horiz-adv-x="491" 
d="M325 410h-144q-14 -86 -14 -154q0 -87 15 -227q0 -20 -8 -24.5t-30 -4.5h-55q-24 0 -34 59q-7 43 -6 115q3 161 3 79q0 106 0 104q6 84 37 84l335 2q23 2 23 -15q0 10 -7 -44q-9 -70 -9 -128q0 -112 15 -229q2 -18 -9 -24q-7 -3 -29 -3h-55q-25 0 -34 59q-7 43 -6 115
q3 153 3 79q0 94 9 157z" />
    <glyph glyph-name="q" unicode="q" horiz-adv-x="682" 
d="M432 32l125 1l1 30q2 59 -33 95t-94 43l-1 -50q0 -22 1 -59q1 -43 1 -60zM217 380q-9 -9 -14 -19q-10 -13 -15 -29l-11 -34q-53 -118 -53 -179q0 -39 16 -72q1 -2 11 -19q9 -13 9 -17q0 -12 -18 -12l-51 1l-45 -2q-19 -1 -24.5 6t-5.5 27q0 64 49 151q16 29 55 88
q13 19 37.5 59t24.5 65q0 4 2 20.5t1 19.5q9 3 19 7q24 5 39 3q22 -3 33 -3l159 1q13 0 13 -14q0 -8 -4 -20q-8 -25 -10 -74q-3 -81 -3 -70v-21q113 0 186 -56.5t73 -149.5q0 -23 -9.5 -31t-32.5 -8h-12l-32 1l-21 1h-236q-11 0 -16 2q-17 7 -17 35v125q0 158 11 248
q-23 -1 -73 -12q-12 -3 -35 -18z" />
    <glyph glyph-name="r" unicode="r" horiz-adv-x="418" 
d="M140 68l4 -32q8 -64 8 -152q0 -127 -60 -127q-19 0 -22 9v6q1 7 1 23v100q0 31 -5 82q-17 174 -17 223q0 114 72 201q61 73 107 73q49 0 106 -87q64 -98 64 -209q0 -72 -30 -126q-36 -66 -103 -66q-37 0 -72 24t-53 58zM166 385q-40 -60 -40 -148q0 -83 43 -142
q38 -52 76 -52q26 0 40 25q11 20 11 49v35q0 59 -39 132q-41 77 -91 101z" />
    <glyph glyph-name="s" unicode="s" horiz-adv-x="369" 
d="M324 156l31 -25q-23 -49 -62 -98q-52 -65 -90 -65q-55 0 -112 104q-51 95 -51 157q0 61 47 148q53 98 107 98q26 0 87 -32q66 -35 66 -56q0 -8 -27 -37q-21 -22 -32 -41q-7 -12 -10 -12q-24 26 -57 60q-30 23 -75 33q-16 -34 -16 -83q0 -64 40 -131q42 -71 100 -93
q19 19 41 53z" />
    <glyph glyph-name="t" unicode="t" horiz-adv-x="584" 
d="M522 263l-49 9q13 37 13 54q0 85 -112 85h-18l-2 -155q-3 -168 6 -233q2 -18 -10 -24q-7 -3 -28 -3h-56q-25 0 -29 45q0 2 1 63l1 59v41l2 109l3 98h-17q-112 0 -112 -85q0 -6 12 -54l-49 -9q-19 59 -55 113q-8 11 -11 18q-6 12 -6 25q0 12 8 23t20 11q-12 0 55 -6
q51 -6 123 -6h220q45 0 112 10q14 2 22 2q12 0 20 -11t8 -23q0 -13 -4.5 -22.5t-11.5 -20.5q-12 -18 -32 -55q-13 -26 -24 -58z" />
    <glyph glyph-name="u" unicode="u" horiz-adv-x="476" 
d="M211 48l2 -16h38q11 129 37 237q18 74 39 111q41 72 109 72q44 0 44 -19q0 -11 -17 -42q-5 -15 -5 -31v-32q0 -12 -2 -18l-22 -1q-6 24 -36 24q-102 0 -102 -335q0 -95 6 -137q13 -91 13 -97q0 -22 -81 -22q-17 0 -17 22q0 54 3.5 80.5t14.5 108.5l6 47h-55q-46 0 -79 -3
q-10 0 -10 10q1 7 1 10v21q0 73 -22 179q-20 97 -48 174q-10 27 -10 41q0 12 51 12q29 0 39 -2q20 -1 41 -39.5t43 -182.5q19 -126 19 -172z" />
    <glyph glyph-name="v" unicode="v" horiz-adv-x="467" 
d="M92 441h228q50 0 66 -7q25 -11 25 -46q0 -57 -60 -94q-36 -23 -111 -45v-6q87 -20 143 -57q76 -50 76 -123q0 -41 -25 -54q-17 -9 -60 -9h-291q-27 0 -32 73q1 -11 1 90q0 -102 -3 86q-1 80 7 127q10 65 36 65zM169 267q45 0 81 30t36 75q0 25 -23 33q-13 5 -44 5
q-7 0 -22 -1h-21q-7 -67 -7 -142zM170 34l60 -2q49 -2 67 7q23 11 23 49q0 47 -38 90q-46 52 -113 52l-2 -79z" />
    <glyph glyph-name="w" unicode="w" horiz-adv-x="668" 
d="M408 32l124 1l1 30q1 43 -19 77q-31 52 -107 61q-2 -16 -2 -34v-16q0 -34 1 -75zM286 223l-141 -1q0 -20 1 -33l5 -69q0 -16 5 -46.5t5 -46.5q0 -20 -17 -25q-6 -2 -34 -2h-45q-22 0 -30 60q-6 42 -5 115q2 162 2 78q0 120 -1 104q5 86 34 85l29 -1l43 2h10q13 -2 13 -14
q0 -22 -9 -92q-5 -39 -5 -76h140q0 85 2 101q8 81 41 80l28 -1h30q10 2 14 2h11q12 -2 12 -14q0 -6 -4 -19q-7 -23 -9 -75q0 -9 -2 -37q-1 -22 -1 -34v-20q122 0 195.5 -58t73.5 -149q0 -27 -19 -35q-10 -4 -35 -4h-17l-16 1l-22 1h-245q-33 0 -33 37v125l-3 60z" />
    <glyph glyph-name="x" unicode="x" horiz-adv-x="480" 
d="M349 -10q-30 -12 -46 -59q-18 -53 -23 -87q0 -35 -23 -35q-17 0 -27 34t-19 66q-10 39 -24.5 63.5t-32.5 24.5l-71 -2q-22 -1 -30 60q-6 44 -4 118q3 127 3 80q0 95 1 104q6 86 35 85l39 -1l34 2h9q12 -2 12 -14q0 -19 -5 -51l-8 -52q-2 -30 -2 -70q0 -42 2 -72
q7 -106 7 -152l142 2l-1 102l-3 117q-3 113 8 157q8 33 29 32l39 -1l32 2h11q13 -2 13 -14q0 -9 -1 -13q-15 -56 -15 -160q0 -73 1 -117l2 -83v-25q-2 -7 -2 -10q-4 -18 -31 -22z" />
    <glyph glyph-name="y" unicode="y" horiz-adv-x="476" 
d="M33 -77l-22 19q43 71 85 95q26 15 61 15q19 0 54.5 -11.5t54.5 -11.5q39 0 61 33q18 28 18 69q0 33 -23 50t-57 17q-15 0 -41 -5q-58 -12 -94 -12q-47 0 -76 28.5t-29 75.5q0 68 60 100q48 26 121 26q40 0 103 -21q78 -25 78 -55q0 -10 -38.5 -26.5t-52.5 -16.5
q-3 0 -11 22q-11 26 -20 38q-18 22 -44 22q-34 0 -55.5 -18.5t-21.5 -52.5q0 -37 26 -55.5t64 -18.5q19 0 50 8q61 15 73 15q50 0 79.5 -32.5t29.5 -82.5q0 -52 -32 -93q-48 -61 -149 -61q-16 0 -37 4.5t-31 5.5l-36 2q-38 3 -76 -15q-19 -9 -47 -35z" />
    <glyph glyph-name="z" unicode="z" 
d="M189 188v40q62 0 91 22q33 25 33 85q0 85 -65 85q-37 0 -56 -25q-20 -28 -18 -55l1 -13l2 -14q0 -17 -50 -29q-37 -8 -64 -8q-1 12 -1 16q0 81 66 123q56 37 141 37q67 0 112 -24q58 -30 58 -91q0 -107 -148 -124v-6l22 -5q146 -18 146 -122q0 -60 -36 -93t-97 -33
q-34 0 -82 17q-32 11 -47 16q-19 6 -28 6q-73 0 -163 -49l-20 24q41 45 62 61q38 29 77 29q20 0 59 -26q31 -21 73 -21q35 0 53 30q16 25 16 62q0 38 -27.5 61.5t-66.5 23.5h-43z" />
    <glyph glyph-name="braceleft" unicode="{" horiz-adv-x="763" 
d="M440 32h148q-9 101 -9 222q0 115 -1 104q6 85 37 84l28 -1h30q10 2 14 2h10q12 -2 12 -14q0 -7 -1 -13l-8 -43q-7 -43 -7 -117q0 -73 5 -123l11 -106q0 -21 -16 -25q-5 -2 -34 -2h-570q-23 0 -32 60q-7 43 -6 116q2 231 2 78q0 105 0 104q6 85 36 84l29 -1h30q10 2 14 2
h10q12 -2 12 -14q0 -7 -1 -13l-7 -36q-8 -48 -8 -124q0 -37 4.5 -112t4.5 -112h148q-9 68 -9 222q0 95 1 104q6 85 37 84l28 -1l53 2q13 -2 13 -14q0 -13 -6 -51q-7 -42 -9 -55q-2 -29 -2 -67q0 -17 5 -132z" />
    <glyph glyph-name="bar" unicode="|" horiz-adv-x="411" 
d="M223 410h-57q-12 -92 -12 -154q0 -90 16 -229q0 -16 -3 -19q-7 -8 -34 -8h-57q-25 0 -34 59q-6 43 -5 115q3 139 3 79q0 117 -1 104q6 86 37 85l39 -1q21 -1 116 1l124 2q4 0 9 1h6q30 0 30 -21q0 -13 -17 -41l-18 -37q-12 -24 -21 -57q-1 -5 -4 -13l-40 4q6 60 6 49
q0 46 -18.5 63.5t-64.5 17.5zM271 662q14 0 38 -6q29 -8 32 -17q5 -24 -70 -85q-14 -11 -48 -30q-37 -20 -49 -20q-17 0 -17 5q0 13 16 28q20 19 42 40q9 11 41 66q11 19 15 19z" />
    <glyph glyph-name="braceright" unicode="}" horiz-adv-x="448" 
d="M165 239h8q117 213 212 213q42 0 42 -15q0 -10 -8 -21q-17 -24 -20 -77l-1 -20l-24 -1q-14 30 -44 30q-24 0 -56 -27q-20 -17 -53 -63l-20 -28q97 -27 156 -83q73 -69 73 -138q0 -12 -24 -12h-12l-34 3q-8 0 -24 -2t-24 -2q-14 0 -21 41q-10 59 -40 103q-34 49 -86 66
q0 -108 10 -179q2 -15 -2 -19q-8 -8 -42 -8h-45q-24 0 -33 59q-6 43 -5 116q3 140 3 78q0 114 -1 105q6 87 36 85l25 -2l48 3q9 1 10 0q12 -3 12 -14q0 -19 -5 -50q-7 -41 -8 -50q-3 -34 -3 -91zM271 662q14 0 38 -6q29 -8 32 -17q5 -24 -70 -85q-14 -11 -48 -30
q-37 -20 -49 -20q-17 0 -17 5q0 13 16 28q20 19 42 40q9 11 41 66q11 19 15 19z" />
    <glyph glyph-name="asciitilde" unicode="~" 
d="M385 445q36 -7 36 -17l-12 -66q-5 -31 -5 -106q0 -39 8 -115t8 -114q0 -19 -12 -24q-7 -3 -30 -3h-51q-25 0 -35 50q-7 37 -5 100q3 121 3 70q-7 1 -11 1q-23 0 -54.5 -19.5t-58.5 -19.5q-39 0 -83 82q-35 65 -57 145q-3 8 -3 17q0 15 30 15h79q18 0 23 -7.5t8 -28.5
q8 -53 25 -92q27 -60 67 -60h11q15 0 23 8q0 106 0 101q6 78 41 80z" />
    <glyph glyph-name="quotesinglbase" unicode="&#x201a;" 
d="M223 441h97q10 0 12 -5q0 -22 6 -44l15 -55l7 -28q34 -135 58 -206q6 -18 34 -95q0 -8 -19 -8h-97q-9 0 -13 33q-5 14 -10 31l-11 37l-12 43q-47 -155 -150 -155q-50 0 -77 38q-25 34 -25 86q0 47 46 112q16 23 73 88q12 14 41 45q16 17 16 27t-5 26.5t-5 24.5q0 5 19 5z
M231 348q-95 -104 -95 -174q0 -27 14.5 -46t41.5 -19q32 0 56.5 23t24.5 54q0 16 -6 36l-10 33l-12 42zM290 662q15 0 39 -6q29 -8 31 -17q6 -25 -70 -85q-15 -12 -48 -30q-37 -20 -49 -20q-16 0 -16 5q0 13 17.5 29.5t39.5 38.5q9 11 41 66q11 19 15 19z" />
    <glyph glyph-name="florin" unicode="&#x192;" horiz-adv-x="411" 
d="M223 410h-57q-12 -92 -12 -154q0 -90 16 -229q0 -16 -3 -19q-7 -8 -34 -8h-57q-25 0 -34 59q-6 43 -5 115q3 139 3 79q0 117 -1 104q6 86 37 85l39 -1q21 -1 116 1q42 0 124 2q4 0 9 1h6q30 0 30 -21q0 -13 -17 -41l-18 -37q-12 -24 -21 -57q-1 -5 -4 -13l-40 4
q6 60 6 49q0 46 -18.5 63.5t-64.5 17.5zM271 662q14 0 38 -6q29 -8 32 -17q5 -24 -70 -85q-14 -11 -48 -30q-37 -20 -49 -20q-17 0 -17 5q0 13 16 28q20 19 42 40q9 11 41 66q11 19 15 19z" />
    <glyph glyph-name="ellipsis" unicode="&#x2026;" horiz-adv-x="411" 
d="M156 242h150v-34h-150q0 -58 14 -181q0 -16 -3 -19q-7 -8 -34 -8h-57q-23 0 -32 48q-7 35 -6 95q2 167 2 66h-60v33h60v110q6 91 36 90l39 -1q21 -1 116 1q42 0 124 2q4 0 9 1h6q30 0 30 -21q0 -13 -17 -41l-18 -37q-12 -24 -21 -57q-1 -5 -4 -13l-40 4q6 60 6 49
q0 46 -18.5 63.5t-64.5 17.5h-57q-10 -76 -10 -168z" />
    <glyph glyph-name="dagger" unicode="&#x2020;" horiz-adv-x="683" 
d="M592 0h-191v40h37q0 139 -29 199q-38 78 -146 99v-298h59v-40h-285v40h79v585h-79v40h292v-40h-66v-253h35l14 26l15 34l20 41q52 106 74 137q49 68 115 68q47 0 83 -17q-7 -18 -20 -54q-1 -4 -3 -30q-3 -30 -3 -46h-19l-31 12q-22 12 -51 12q-56 0 -155 -194
q138 -31 201.5 -106.5t63.5 -214.5h57v-40h-17q-47 -22 -58 -83q0 -55 39 -55q30 0 54 25l2 -17q-34 -48 -99 -48q-30 3 -48 22.5t-18 49.5q0 74 78 106z" />
    <glyph glyph-name="daggerdbl" unicode="&#x2021;" horiz-adv-x="448" 
d="M312 -4q-14 0 -21 41q-10 59 -40 103q-34 49 -86 66q0 -108 10 -179q2 -15 -2 -19q-8 -8 -42 -8h-45q-24 0 -33 59q-6 43 -5 116q3 140 3 78q0 114 -1 105q6 87 36 85l25 -2l48 3q9 1 10 0q12 -3 12 -14q0 -19 -5 -50q-7 -41 -8 -50q-3 -34 -3 -91h8q117 213 212 213
q42 0 42 -15q0 -10 -8 -21q-17 -24 -20 -77l-1 -20l-24 -1q-14 30 -44 30q-24 0 -56 -27q-20 -17 -53 -63l-20 -28q97 -27 156 -83q73 -69 73 -138q0 -9 -18 -9q-43 -31 -53 -75q0 -41 15 -49q10 -9 25 -9q16 0 36 18v-18q-13 -18 -43 -31q-15 -7 -44 -7q-57 6 -57 65
q0 35 28 66q25 25 61 40h-29q-7 0 -20 -2t-19 -2z" />
    <glyph glyph-name="circumflex" unicode="&#x2c6;" 
d="M439 399l24 -29q-49 -34 -88 -34t-81 47q-10 12 -23 25t-28 13q-73 0 -73 -195q23 18 61 35q42 19 65 19q27 0 61 -18t39 -18q17 0 36 15l19 -25q-24 -29 -52.5 -49.5t-48.5 -20.5t-44 16q-45 30 -71 30q-31 0 -64 -28q0 -69 31 -116q35 -54 101 -54q56 0 123 49l17 -20
q-66 -73 -170 -73q-87 0 -148 41q-88 59 -88 184v32q0 78 47 146q58 84 156 84q44 0 88 -18q22 -9 55 -29q21 -16 35 -16q11 0 21 7zM290 662q15 0 39 -6q29 -8 31 -17q6 -25 -70 -85q-15 -12 -48 -30q-37 -20 -49 -20q-16 0 -16 5q0 13 17.5 29.5t39.5 38.5q9 11 41 66
q11 19 15 19z" />
    <glyph glyph-name="perthousand" unicode="&#x2030;" horiz-adv-x="501" 
d="M163 256l162 97v55q5 33 32 33h83q12 0 12 -14l-4 -39q-4 -24 -10 -64q-2 -24 -2 -68q0 -122 15 -229q3 -18 -9 -24q-7 -3 -29 -3h-56q-29 0 -34 144q0 -14 0 169l-160 -95q0 -78 16 -191q3 -18 -9 -24q-7 -3 -29 -3h-57q-11 0 -15 2q-10 6 -12 35l-4 60q0 24 -3 82
q-2 50 -2 74v103q6 85 35 85h84q13 0 13 -14l-5 -39q-12 -94 -12 -132zM290 662q15 0 39 -6q29 -8 31 -17q6 -25 -70 -85q-15 -12 -48 -30q-37 -20 -49 -20q-16 0 -16 5q0 13 17.5 29.5t39.5 38.5q9 11 41 66q11 19 15 19z" />
    <glyph glyph-name="Scaron" unicode="&#x160;" horiz-adv-x="950" 
d="M606 40h86q32 0 45 6q26 12 26 47l-1 136q-1 26 -8.5 34t-36.5 17q-67 22 -111 58v-298zM379 664l306 1v-40h-79v-234q38 -33 97 -55q66 -23 110 -21l39 2q39 2 52 -21q6 -11 6 -41v-189q0 -38 -11 -52t-46 -14h-473v40h79v585h-52q-35 0 -49 -3q-17 -4 -45 -21
q-12 -7 -40 -72l-40 -93q-73 -131 -73 -229q0 -44 1 -53q4 -42 24.5 -42t25.5 -41q1 -7 1 -57q0 -24 -34 -24q-8 0 -24 2.5t-25 2.5h-12q-8 0 -23 -1.5t-22 -1.5q-32 0 -35 34v34q0 63 29 136q15 41 60 127l102 195q28 59 28 83q0 16 -7.5 20t-24.5 4h-65v40q15 -3 85 -3
q23 0 68 1q49 1 67 1z" />
    <glyph glyph-name="guilsinglleft" unicode="&#x2039;" horiz-adv-x="421" 
d="M37 193q0 109 68 202q59 80 102 80q48 0 104 -53q73 -69 73 -174q0 -68 -53 -168q-58 -112 -119 -112t-120 83q-55 78 -55 142zM134 369q-30 -36 -30 -77q0 -64 40 -128q50 -80 128 -80q12 0 18 1q16 32 16 70q0 80 -46 141q-49 64 -126 73zM241 662q15 0 39 -6
q29 -8 32 -17q4 -25 -71 -85q-15 -12 -47 -30q-37 -20 -49 -20q-17 0 -17 5q0 13 16 28q20 19 42 40q11 14 34 54q18 31 21 31z" />
    <glyph glyph-name="OE" unicode="&#x152;" horiz-adv-x="947" 
d="M605 40h85q33 0 46 6q26 12 26 47l-1 136q-1 26 -8.5 34t-36.5 17q-67 22 -111 58v-298zM263 347v-307h66v-40h-292v40h79v585h-79v40h292v-40h-66v-232l196 -2l-1 234h-79v40h305v-40h-79v-234q37 -35 108 -59q62 -21 98 -20l39 1q6 1 17 1q42 0 42 -62v-186
q0 -38 -11 -52t-47 -14h-472v40h79l1 307h-196z" />
    <glyph glyph-name="bullet" unicode="&#x2022;" horiz-adv-x="411" 
d="M319 314q0 -105 -105 -105q-106 0 -106 100q0 56 26.5 86.5t79.5 30.5q105 0 105 -112z" />
    <glyph glyph-name="endash" unicode="&#x2013;" horiz-adv-x="475" 
d="M-4 256h479v-86h-479v86z" />
    <glyph glyph-name="emdash" unicode="&#x2014;" horiz-adv-x="950" 
d="M-2 266h960v-90h-960v90z" />
    <glyph glyph-name="tilde" unicode="&#x2dc;" horiz-adv-x="480" 
d="M211 48l2 -16h38q11 129 37 237q18 74 39 111q41 72 109 72q44 0 44 -19q0 -11 -17 -42q-5 -15 -5 -31v-32q0 -12 -2 -18l-22 -1q-6 24 -36 24q-102 0 -102 -335q0 -95 6 -137q13 -91 13 -97q0 -22 -81 -22q-17 0 -17 22q0 54 3.5 80.5t14.5 108.5l6 47h-55q-46 0 -79 -3
q-10 0 -10 10q1 7 1 10v21q0 73 -22 179q-20 97 -48 174q-10 27 -10 41q0 12 51 12q29 0 39 -2q20 -1 41 -39.5t43 -182.5q19 -126 19 -172zM290 662q15 0 39 -6q29 -8 31 -17q6 -25 -70 -85q-15 -12 -48 -30q-37 -20 -49 -20q-16 0 -16 5q0 13 17.5 29.5t39.5 38.5
q9 11 41 66q11 19 15 19z" />
    <glyph glyph-name="trademark" unicode="&#x2122;" horiz-adv-x="684" 
d="M332 0v40h90l-148 251l-55 -106q-12 -23 -26 -61q-16 -44 -16 -62q0 -23 43 -23q16 0 24 1v-40h-230v40q10 -1 14 -1q51 0 85 43q20 26 61 113l13 28l57 118l-166 284h-63v40h297v-40h-71l100 -162q44 95 79 140q58 75 125 75q19 0 52 -8q41 -9 41 -21q0 -11 -26 -53
l-9 -50q1 -12 -3 -24q-5 0 -14 -1h-13q-16 0 -41.5 17t-35.5 17q-61 0 -123 -138l217 -377h81v-40h-33q-39 -22 -49 -81q0 -40 19 -51q10 -4 20 -4q30 0 54 25v-21q-31 -44 -98 -44q-29 3 -47 23t-18 49q0 73 80 104h-267z" />
    <glyph glyph-name="scaron" unicode="&#x161;" horiz-adv-x="713" 
d="M432 32l125 1l1 30q2 59 -33 95t-94 43l-1 -50q0 -22 1 -59q1 -43 1 -60zM217 380q-9 -9 -14 -19q-10 -13 -15 -29l-11 -34q-53 -118 -53 -179q0 -39 16 -72q1 -2 11 -19q9 -13 9 -17q0 -12 -18 -12l-51 1l-45 -2q-19 -1 -24.5 6t-5.5 27q0 64 49 151q16 29 55 88
q13 19 37.5 59t24.5 65q0 4 2 20.5t1 19.5q9 3 19 7q24 5 39 3q22 -3 33 -3l159 1q13 0 13 -14q0 -8 -4 -20q-8 -25 -10 -74q-3 -81 -3 -70v-21q113 0 186 -56.5t73 -149.5q0 -23 -9.5 -31t-32.5 -8h-12l-32 1l-21 1h-236q-11 0 -16 2q-17 7 -17 35v125q0 158 11 248
q-23 -1 -73 -12q-12 -3 -35 -18z" />
    <glyph glyph-name="guilsinglright" unicode="&#x203a;" horiz-adv-x="659" 
d="M331 0h-246q-33 0 -33 37v125q0 -110 -3 86q-1 82 7 129q10 66 35 65l29 -1h29q10 2 14 2h11q12 -2 12 -14q0 -6 -4 -19q-6 -18 -10 -104q-2 -29 -2 -42v-20q122 0 195.5 -58t73.5 -149q0 -27 -19 -35q-10 -4 -35 -4h-16l-16 1zM476 254v104q6 85 37 84l28 -1l43 2h11
q12 -2 12 -14q-16 -115 -16 -172q0 -140 15 -230q3 -20 -14 -25q-6 -2 -34 -2h-45q-25 0 -31 25q-2 9 -2 45q0 33 -2 106zM170 32l124 1l1 30q1 43 -19 77q-31 52 -107 61q-2 -16 -2 -34v-16q0 -34 1 -75zM402 657q15 0 39 -6q29 -8 32 -17q4 -17 -27 -47q-12 -12 -44 -38
q-14 -12 -47 -30q-37 -20 -49 -20q-17 0 -17 5q0 13 16 28q20 19 42 40q14 17 35 54q18 31 20 31z" />
    <glyph glyph-name="oe" unicode="&#x153;" horiz-adv-x="696" 
d="M408 32l124 1l1 30q1 43 -19 77q-31 52 -107 61q-2 -16 -2 -34v-16q0 -34 1 -75zM286 223l-141 -1q0 -20 1 -33l5 -69q0 -16 5 -46.5t5 -46.5q0 -20 -17 -25q-6 -2 -34 -2h-45q-22 0 -30 60q-6 42 -5 115q2 162 2 78q0 120 -1 104q5 86 34 85l29 -1l43 2h10q13 -2 13 -14
q0 -22 -9 -92q-5 -39 -5 -76h140q0 85 2 101q8 81 41 80l28 -1h30q10 2 14 2h11q12 -2 12 -14q0 -6 -4 -19q-6 -18 -10 -104q-2 -29 -2 -42v-20q122 0 195.5 -58t73.5 -149q0 -27 -19 -35q-10 -4 -35 -4h-17l-16 1l-22 1h-245q-33 0 -33 37v125l-3 60z" />
    <glyph glyph-name="Ydieresis" unicode="&#x178;" horiz-adv-x="485" 
d="M349 -10q-30 -12 -46 -59q-18 -53 -23 -87q0 -35 -23 -35q-17 0 -27 34t-19 66q-10 39 -24.5 63.5t-32.5 24.5l-71 -2q-22 -1 -30 60q-6 44 -4 118q3 127 3 80q0 95 1 104q6 86 35 85l39 -1l34 2h9q12 -2 12 -14q0 -19 -5 -51l-8 -52q-2 -30 -2 -70q0 -42 2 -72
q7 -106 7 -152l142 2l-1 102l-3 117q-3 113 8 157q8 33 29 32l39 -1l32 2h11q13 -2 13 -14q0 -9 -1 -13q-15 -56 -15 -160q0 -73 1 -117l2 -83v-25q-2 -7 -2 -10q-4 -18 -31 -22z" />
    <glyph glyph-name="nonbreakingspace" unicode="&#xa0;" horiz-adv-x="500" 
 />
    <glyph glyph-name="exclamdown" unicode="&#xa1;" horiz-adv-x="394" 
d="M124 40v585h-80v40h306v-40h-79v-585h79v-40h-306v40h80zM63 822h32l49 1q6 0 9.5 -3.5t3.5 -9.5l-1 -46l1 -44q0 -13 -13 -15h-10l-39 2l-32 -1q-20 -1 -23 21q0 -3 0 38q0 31 1 36q4 21 22 21zM248 822h33l49 1q6 0 9 -3.5t3 -9.5l-1 -46l1 -44q0 -13 -12 -15h-11
l-38 2l-33 -1q-19 -1 -23 22v37q0 28 2 35q4 22 21 22z" />
    <glyph glyph-name="cent" unicode="&#xa2;" horiz-adv-x="249" 
d="M146 0h-44q-24 0 -30 25q-2 10 -2 45q0 31 -2.5 92t-2.5 92q0 96 1 103q6 86 36 85l32 -1l39 2h10q13 -2 13 -14q-15 -70 -15 -172q0 -140 14 -230q3 -21 -14 -25q-6 -2 -35 -2zM14 617h32l49 1q7 0 10 -3.5t3 -10.5l-1 -45l1 -44q0 -15 -13 -15h-10l-39 1l-32 -1
q-19 -1 -23 22v38q0 31 1 36q4 21 22 21zM175 617h33l48 1q7 0 10 -3.5t3 -10.5l-1 -45l1 -44q0 -15 -13 -15h-10l-38 1l-33 -1q-19 -1 -23 22v38q0 28 2 35q4 22 21 22z" />
    <glyph glyph-name="sterling" unicode="&#xa3;" horiz-adv-x="630" 
d="M263 254v-214h79v-40h-305v40h79l1 561q0 77 231 77q99 0 164 -45q76 -51 76 -145q0 -75 -42 -127q-45 -57 -118 -57q-28 0 -51 10q-10 6 -27 15l-21 10zM263 311l61 77q18 -16 35 -16q62 0 62 118q0 148 -80 148q-54 0 -70 -66q-8 -33 -8 -133v-128z" />
    <glyph glyph-name="currency" unicode="&#xa4;" horiz-adv-x="795" 
d="M59 103l122 91q-52 51 -52 120q0 71 52 119l-122 93l62 46l118 -91q71 37 157 37q92 0 155 -37l121 91l59 -46l-118 -93q48 -48 48 -119q0 -67 -48 -120l118 -91l-59 -48l-121 93q-69 -39 -155 -39q-85 0 -157 39l-118 -93zM396 446q-100 0 -135 -65q-16 -29 -16 -67
q0 -61 47 -98q43 -35 104 -35q45 0 81.5 20.5t55 51.5t21.5 61q0 79 -74 114q-38 18 -84 18z" />
    <glyph glyph-name="yen" unicode="&#xa5;" horiz-adv-x="564" 
d="M473 610q4 0 19 -3q12 -3 18 -3q32 0 32 37q0 8 -7 26l-12 26q-12 36 -17 78q-3 27 -4 31q-6 21 -24 21q-15 0 -22 -13q-3 -6 -9 -27q-24 -93 -81 -116q-12 -5 -127 -5h-120q-42 1 -82 3v-40h79v-585h-79v-40h305v40h-79v585h75z" />
    <glyph glyph-name="brokenbar" unicode="&#xa6;" horiz-adv-x="321" 
d="M107 -14v263h107v-263h-107zM107 380v263h107v-263h-107z" />
    <glyph glyph-name="section" unicode="&#xa7;" horiz-adv-x="617" 
d="M75 264q0 68 76 104q41 19 80 17l22 -1l2 2q-127 83 -127 156q0 101 184 101q29 0 74 -13q55 -16 74 -55q6 -11 6 -25q0 -21 -16.5 -36t-46.5 -15q-58 0 -58 41q0 16 13 27t25 20l4 4q0 32 -85 32q-45 0 -62 -23.5t-20 -43.5l8 -34q7 -22 27 -35l161 -107q44 -29 76 -67
q42 -48 42 -89q0 -51 -23.5 -82t-82.5 -28l-20 1l-3 -6q45 -35 61 -60q22 -33 22 -81q0 -65 -87 -94q-45 -15 -100 -15q-99 0 -150 47q-23 21 -23 48q0 24 21 38t46 14q20 0 38 -9q22 -11 22 -30q0 -13 -8 -23l-21 -18q-13 -11 -13 -14q0 -17 39 -27q28 -6 52 -6q41 0 70 16
q34 21 34 59q0 18 -13 38q-17 20 -52 41l-135 83q-133 82 -133 148zM237 364q-26 0 -42 -19t-16 -52q0 -35 22 -53l27 -22l38 -30l33 -25q18 -11 38 -19q16 -5 38 -5q25 0 39 25q12 21 12 48l-2 20q-6 20 -51 59q-36 31 -64 48q-41 25 -72 25z" />
    <glyph glyph-name="dieresis" unicode="&#xa8;" horiz-adv-x="687" 
d="M344 333h35q-6 22 -23 39.5t-37 17.5q-69 0 -107 -44q11 -66 24 -109q27 -87 27 -154q0 -26 -9 -50q13 -7 35 -7q145 0 177 143h-48v39h249v-39l-35 -1q-42 -77 -116 -128q-79 -54 -162 -54q-93 0 -155 18q2 16 2 24q0 56 -57.5 126.5t-74.5 100.5q-29 53 -29 118
q0 162 110 242q87 63 215 63q90 0 156 -34q77 -38 107 -115h45v-40h-235v40h30q-23 109 -126 109q-72 0 -108 -72q-28 -56 -28 -136q0 -24 3 -47q66 59 159 59q57 0 105.5 -29t67.5 -80h39v-41h-236v41zM418 802q0 30 1 33q3 20 21 19l32 -1l56 1q13 -1 13 -15l-1 -38l1 -43
q0 -13 -13 -16h-11l-45 2l-32 -1q-19 -1 -22 21q0 -3 0 38zM175 802q0 30 1 33q3 20 21 19l32 -1l56 1q12 -2 12 -15l-1 -38l1 -43q0 -13 -12 -16h-12l-44 2l-32 -1q-18 -1 -22 22v37z" />
    <glyph glyph-name="copyright" unicode="&#xa9;" horiz-adv-x="855" 
d="M428 -52q-178 0 -288.5 112t-110.5 288q0 97 33 174q86 201 366 201q134 0 229 -60q156 -98 156 -321q0 -183 -111.5 -288.5t-273.5 -105.5zM135 342q0 -81 38 -152t105.5 -109.5t149.5 -38.5q78 0 145 38.5t106.5 108t39.5 153.5q0 93 -48 167t-131 109q-53 23 -112 23
q-83 0 -150 -37q-72 -38 -107.5 -107.5t-35.5 -154.5zM337 404l-9 -53l-2 -27l2 -26q2 -31 24.5 -62t51.5 -45q33 -15 63 -13l36 3q34 10 47 21q5 3 21 21q12 11 18 17l2 -24l-25 -30q-12 -14 -27 -24q-20 -13 -46 -20q-18 -7 -62 -7q-70 0 -119 32q-39 25 -62 76
q-22 47 -22 96q0 50 22 95.5t62 70.5q52 33 119 33q39 0 78 -14q21 -7 36 -10l10 3l8 7l8 14h12v-131h-14q-5 14 -28.5 47t-34.5 40q-23 14 -49 14q-25 0 -36.5 -4t-29.5 -21q-52 -47 -54 -79z" />
    <glyph glyph-name="ordfeminine" unicode="&#xaa;" horiz-adv-x="687" 
d="M209 342q-6 -24 -10 -66q-4 -34 -7 -68q-3 -24 -3 -39q0 -112 95 -144q21 -7 43 -7q57 0 97 56q30 42 42 95h-48v39h249v-39l-35 -1q-42 -77 -116 -128q-79 -54 -162 -54h-22h-11q-8 -1 -12 -1q-69 -2 -117 23q-41 21 -42 22q-20 13 -37 41q-43 68 -60 145
q-13 62 -13 157q0 162 110 242q87 63 215 63q90 0 156 -34q77 -38 107 -115h45v-40h-235v40h30q-23 109 -126 109q-72 0 -108 -72q-28 -56 -28 -136q0 -24 3 -47q18 -16 64 -16h16q22 0 51 14q25 11 49 22q31 12 49 12q42 0 64 -10q43 -20 55 -77l-35 -13q-15 13 -56 13
q-12 0 -30 -10t-58 -23q-8 -1 -20 -1q-37 0 -80 13t-69 35z" />
    <glyph glyph-name="guillemotleft" unicode="&#xab;" horiz-adv-x="802" 
d="M425 120v-121l-368 252v70l371 236v-108l-241 -160zM734 120v-121l-366 252v70l369 236v-108l-240 -160z" />
    <glyph glyph-name="logicalnot" unicode="&#xac;" horiz-adv-x="469" 
d="M20 56l18 20q62 -48 126 -48q68 0 100 59q23 42 32 131q-54 -52 -116 -52q-30 0 -73 22q-22 12 -30 12q-21 0 -37 -14l-20 24q66 66 105 66q20 0 56.5 -21.5t61.5 -21.5q30 0 52 25q0 62 -31 104q-34 46 -94 46q-51 0 -127 -47l-18 19q84 70 176 70q97 0 162 -58
q67 -61 67 -156q0 -82 -37 -146q-60 -104 -197 -104q-104 0 -176 70zM275 657q15 0 39 -6q29 -8 32 -17q4 -17 -27 -47q-12 -12 -44 -38q-14 -12 -47 -30q-37 -20 -49 -20q-17 0 -17 5q0 13 16 28q20 19 42 40q14 17 35 54q18 31 20 31z" />
    <glyph glyph-name="minus" unicode="&#xad;" horiz-adv-x="650" 
d="M163 250h104q15 90 78 163q54 62 88 62q45 0 102 -53q75 -69 75 -174q0 -70 -51 -169q-58 -111 -120 -111q-50 0 -109 71q-67 80 -67 172h-100q0 -46 4 -85l10 -99q0 -20 -17 -25q-6 -2 -34 -2h-44q-30 0 -35 117q1 -23 1 136q0 116 -1 104q5 86 35 85l28 -1h30q9 2 13 2
h10q13 -3 13 -15q0 -17 -4 -40q-9 -53 -9 -138zM365 369q-25 -27 -30 -77v-29q6 -61 49 -115q51 -64 120 -64q10 0 16 1q17 34 17 70q0 69 -40 130q-48 74 -132 84zM349 667q15 0 39 -6q29 -8 31 -17q5 -24 -70 -85q-14 -11 -48 -30q-37 -20 -49 -20q-17 0 -17 4q0 13 32 43
q29 27 67 92q11 19 15 19z" />
    <glyph glyph-name="minus" unicode="&#x2212;" horiz-adv-x="650" 
d="M163 250h104q15 90 78 163q54 62 88 62q45 0 102 -53q75 -69 75 -174q0 -70 -51 -169q-58 -111 -120 -111q-50 0 -109 71q-67 80 -67 172h-100q0 -46 4 -85l10 -99q0 -20 -17 -25q-6 -2 -34 -2h-44q-30 0 -35 117q1 -23 1 136q0 116 -1 104q5 86 35 85l28 -1h30q9 2 13 2
h10q13 -3 13 -15q0 -17 -4 -40q-9 -53 -9 -138zM365 369q-25 -27 -30 -77v-29q6 -61 49 -115q51 -64 120 -64q10 0 16 1q17 34 17 70q0 69 -40 130q-48 74 -132 84zM349 667q15 0 39 -6q29 -8 31 -17q5 -24 -70 -85q-14 -11 -48 -30q-37 -20 -49 -20q-17 0 -17 4q0 13 32 43
q29 27 67 92q11 19 15 19z" />
    <glyph glyph-name="registered" unicode="&#xae;" horiz-adv-x="447" 
d="M250 -55h-3q-15 9 -29 41l-28 65q-58 -199 -107 -199q-8 0 -32 18q-16 0 -16 17q0 5 5 23q0 8 7 29q8 14 15 22q20 24 59 68q29 33 41 85l-28 65l-27 57l-56 122q-30 66 -30 64q0 19 18 19h62q8 0 24 3q13 0 21 -23q5 -12 10 -25q22 -58 55 -133l17 -39q30 107 44 138
q41 90 99 90q14 0 38 -8q27 -11 27 -22q0 -15 -7 -20q-16 -13 -16 -60q0 -31 1 -39l-18 -11q-24 26 -49 26q-34 0 -62 -58q-8 -16 -32 -87q41 -108 76 -156q37 -51 40 -58l-27 -21q-28 -22 -32 -30q-10 -14 -15 -38q0 -41 19 -51q14 -7 24 -7q14 0 32 18l-6 -20
q-26 -36 -80 -36q-57 8 -57 65q0 35 27 65q25 27 60 41q-11 -5 -34 -5t-33 3q1 1 3 2z" />
    <glyph glyph-name="macron" unicode="&#xaf;" horiz-adv-x="650" 
d="M407 0h-50l-4 -73v-43q0 -46 11 -98q2 -9 2 -13q0 -2 -2 -10l-89 -7q0 58 14 182l7 62h-86l-151 625h-39v40h255v-40h-65l119 -506q34 159 48 219q29 123 59 216q40 124 122 124q21 0 44 -6q29 -8 37 -20q-1 -9 -8 -29q-12 -24 -12 -102h-14l-17 9q-8 5 -18 9.5t-21 4.5
q-80 0 -130 -226q-9 -46 -28 -137l-15 -69q-4 -23 -17 -72h48v-40zM480 848l42 -16q-21 -54 -58 -93q-45 -47 -95 -47q-56 0 -94 51q-31 43 -40 104l37 10q29 -78 90 -78q83 0 118 69z" />
    <glyph glyph-name="macron" unicode="&#x2c9;" horiz-adv-x="650" 
d="M407 0h-50l-4 -73v-43q0 -46 11 -98q2 -9 2 -13q0 -2 -2 -10l-89 -7q0 58 14 182l7 62h-86l-151 625h-39v40h255v-40h-65l119 -506q34 159 48 219q29 123 59 216q40 124 122 124q21 0 44 -6q29 -8 37 -20q-1 -9 -8 -29q-12 -24 -12 -102h-14l-17 9q-8 5 -18 9.5t-21 4.5
q-80 0 -130 -226q-9 -46 -28 -137l-15 -69q-4 -23 -17 -72h48v-40zM480 848l42 -16q-21 -54 -58 -93q-45 -47 -95 -47q-56 0 -94 51q-31 43 -40 104l37 10q29 -78 90 -78q83 0 118 69z" />
    <glyph glyph-name="degree" unicode="&#xb0;" horiz-adv-x="494" 
d="M247 371q-65 0 -117 34q-60 39 -60 101q0 76 88 119q47 18 89 18q52 0 99 -24q43 -21 65 -59q13 -31 13 -54q0 -57 -51 -96t-126 -39zM247 411q62 0 92 50q14 23 14 45q0 44 -30.5 70.5t-75.5 26.5q-39 0 -70 -27t-31 -66q0 -22 14 -45q33 -54 87 -54z" />
    <glyph glyph-name="plusminus" unicode="&#xb1;" horiz-adv-x="573" 
d="M263 385h251v-51h-251v-294h79v-40h-305v40h79v294h-79v49h79v242h-79v40h357q43 0 90 5q5 1 26 5q18 3 24 3q31 0 31 -37q0 -5 -19 -56q-7 -19 -12 -53q-5 -38 -9 -52q-6 -21 -24 -21q-15 0 -21 12q-2 4 -9 29q-22 79 -60 107q-25 18 -72 18h-76v-240z" />
    <glyph glyph-name="acute" unicode="&#xb4;" horiz-adv-x="400" 
d="M76 442q-31 0 -36 -85q0 4 0 -104q0 63 -3 -79q-1 -72 5 -115q10 -59 34 -59h57q26 0 33 8q4 4 4 19q-16 139 -16 229q0 66 12 154h85l84 -2q5 -1 15 -1q30 0 30 21q0 8 -16 41l-18 37q-6 13 -16 41l-10 29l-40 -4q3 -16 6 -49q1 -27 1 -29q0 -29 -17 -40
q-13 -10 -45 -10z" />
    <glyph glyph-name="paragraph" unicode="&#xb6;" horiz-adv-x="662" 
d="M450 603v-607l-264 3v24q45 0 81 8q22 5 29 43q2 14 2 56v129q-169 0 -245 94q-35 44 -35 103q0 118 137 156q61 17 161 17h326v-15q-38 0 -73.5 -11.5t-35.5 -77.5v-411q0 -42 8 -58q9 -23 58 -31q18 -2 43 -2v-27h-171v607h-21zM298 280v328q-43 0 -76 -20
q-49 -30 -49 -136q0 -172 125 -172z" />
    <glyph glyph-name="periodcentered" unicode="&#xb7;" horiz-adv-x="333" 
d="M294 314q0 -53 -37.5 -90t-89.5 -37q-76 0 -112 64q-17 30 -17 63q0 55 37.5 92t91.5 37t90.5 -38t36.5 -91z" />
    <glyph glyph-name="periodcentered" unicode="&#x2219;" horiz-adv-x="333" 
d="M294 314q0 -53 -37.5 -90t-89.5 -37q-76 0 -112 64q-17 30 -17 63q0 55 37.5 92t91.5 37t90.5 -38t36.5 -91z" />
    <glyph glyph-name="cedilla" unicode="&#xb8;" 
d="M439 399l24 -29q-49 -34 -88 -34t-81 47q-10 12 -23 25t-28 13q-73 0 -73 -195q23 18 61 35q42 19 65 19q27 0 61 -18t39 -18q17 0 36 15l19 -25q-24 -29 -52.5 -49.5t-48.5 -20.5t-44 16q-45 30 -71 30q-31 0 -64 -28q0 -69 31 -116q35 -54 101 -54q56 0 123 49l17 -20
q-66 -73 -170 -73q-87 0 -148 41q-88 59 -88 184v32q0 78 47 146q58 84 156 84q44 0 88 -18q22 -9 55 -29q21 -16 35 -16q11 0 21 7zM126 617h33l51 1q7 0 9.5 -3.5t2.5 -10.5l-2 -45l2 -44q1 -15 -12 -15h-11l-40 1l-33 -1q-22 -1 -22 47q0 6 -1 17v17q0 32 10 35q3 1 13 1
zM301 617h32l51 1q7 0 9.5 -3.5t2.5 -10.5l-2 -45l2 -44q1 -15 -12 -15h-10l-41 1l-32 -1q-22 -1 -22 47q0 6 -1 18v19q0 29 10 32q3 1 13 1z" />
    <glyph glyph-name="onesuperior" unicode="&#xb9;" horiz-adv-x="956" 
d="M263 415v-375h66v-40h-292v40h79v585h-79v40h292v-40h-66v-164l209 -144l1 308h-65v40h291v-40h-79v-585h79v-40h-291v40h65l-1 231zM915 475q0 -42 -32.5 -71t-74.5 -29q-43 0 -78 23q-38 27 -38 68q0 44 34 72t78 28q47 0 79 -26.5t32 -64.5zM700 337h213v-50h-213v50z
M856 473q0 21 -14 34.5t-36 13.5q-25 0 -35 -14q-14 -16 -14 -34q0 -21 15.5 -38t35.5 -17t34 17t14 38z" />
    <glyph glyph-name="ordmasculine" unicode="&#xba;" horiz-adv-x="469" 
d="M438 61q-72 -69 -175 -69q-111 0 -174 70q-60 67 -60 180q0 95 67 155q64 58 161 58q54 0 95 -17q36 -15 81 -53l-18 -19q-74 47 -127 47q-59 0 -94 -46q-31 -42 -31 -103q21 -26 52 -26q27 0 50 14q28 17 32 19q21 11 37 11q37 0 104 -67l-20 -24q-17 15 -37 15
q-7 0 -32 -12q-31 -15 -36 -17q-17 -6 -34 -6q-61 0 -117 52q9 -91 31 -131q32 -59 101 -59q62 0 126 48z" />
    <glyph glyph-name="guillemotright" unicode="&#xbb;" horiz-adv-x="802" 
d="M383 120l239 169l-242 160v108l370 -236v-70l-367 -252v121zM72 120l239 169l-241 160v108l370 -236v-70l-368 -252v121z" />
    <glyph glyph-name="onequarter" unicode="&#xbc;" horiz-adv-x="738" 
d="M408 -139q-7 -27 -9 -47q0 -43 -28 -43q-26 0 -57 120l-3 11q-7 31 -16 65q-13 30 -45 33h-213v40h79v585h-79v40h292v-40h-66v-585h206v585h-66v40h292v-40h-78l-2 -587h89v-38h-219q-21 -5 -37 -31q-21 -34 -40 -108z" />
    <glyph glyph-name="onehalf" unicode="&#xbd;" horiz-adv-x="736" 
d="M473 40l-1 252q-60 -20 -132 -20q-96 0 -149 40.5t-75 129.5t-22 183h-57v40h285v-40h-64q0 -17 -1 -51t-1 -51q0 -90 25 -129q21 -33 59 -55t76 -22q29 0 56 13l1 295h-59v40h285v-40h-79v-585h79v-40h-291v40h65z" />
    <glyph glyph-name="threequarters" unicode="&#xbe;" 
d="M385 445q36 -7 36 -17l-12 -66q-5 -31 -5 -106q0 -39 8 -115t8 -114q0 -19 -12 -24q-7 -3 -30 -3h-51q-25 0 -35 50q-7 37 -5 100q3 121 3 70q-7 1 -11 1q-23 0 -54.5 -19.5t-58.5 -19.5q-39 0 -83 82q-35 65 -57 145q-3 8 -3 17q0 15 30 15h79q18 0 23 -7.5t8 -28.5
q8 -53 25 -92q27 -60 67 -60h11q15 0 23 8q0 106 0 101q6 78 41 80z" />
    <glyph glyph-name="questiondown" unicode="&#xbf;" horiz-adv-x="480" 
d="M211 48l2 -16h38q11 129 37 237q18 74 39 111q41 72 109 72q44 0 44 -19q0 -11 -17 -42q-5 -15 -5 -31v-32q0 -12 -2 -18l-22 -1q-6 24 -36 24q-102 0 -102 -335q0 -95 6 -137q13 -91 13 -97q0 -22 -81 -22q-17 0 -17 22q0 54 3.5 80.5t14.5 108.5l6 47h-55q-46 0 -79 -3
q-10 0 -10 10q1 7 1 10v21q0 73 -22 179q-20 97 -48 174q-10 27 -10 41q0 12 51 12q29 0 39 -2q20 -1 41 -39.5t43 -182.5q19 -126 19 -172zM358 608l21 -13q-52 -116 -119 -116q-20 0 -43 34q-27 39 -36 88l-5 26l25 7q26 -69 72 -69q56 0 77 31z" />
    <glyph glyph-name="Agrave" unicode="&#xc0;" horiz-adv-x="656" 
d="M262 638h-73v40h295v-40h-74l174 -598h66v-40h-285v40h72l-71 246q-24 -111 -81 -197q-68 -103 -144 -103q-52 0 -79.5 31t-27.5 84q0 77 43 171q34 74 103 179q20 28 58 86q26 41 26 80q0 7 -2 21zM121 167q0 -63 52 -63q27 0 44 21q31 39 67 101q48 82 54 129l-43 172
l-56 -76q-32 -44 -51 -79q-21 -38 -42 -98q-25 -71 -25 -107z" />
    <glyph glyph-name="Aacute" unicode="&#xc1;" horiz-adv-x="606" 
d="M37 665l333 -2q24 0 72.5 2.5t72.5 2.5q30 0 30 -33q0 -7 -16 -45q-9 -21 -13 -55q-5 -41 -9 -55q-6 -21 -24 -21q-15 0 -21 12q-2 4 -9 29q-22 79 -60 107q-25 18 -72 18h-58v-238q28 -27 50 -37q17 -9 60 -19q9 -2 139 -30q56 -21 56 -121v-119q0 -30 -17.5 -47
t-46.5 -17l-467 3v40h79v585h-79v40zM263 40q38 -4 88 -4q26 0 33 3q24 10 29 16q9 11 9 49v107q0 24 -10 35q-6 7 -31 21q-55 30 -67 38q-28 19 -51 46v-311z" />
    <glyph glyph-name="Acircumflex" unicode="&#xc2;" horiz-adv-x="617" 
d="M105 40l-1 419q0 141 59 184q49 35 198 35q78 0 134 -37q64 -42 64 -116q0 -67 -59 -107q-45 -30 -86 -30q-14 -2 -26 -2q-21 0 -46 15l-60 -32q43 -34 86 -52q23 -10 82 -22q44 -9 49 -11q41 -14 53 -40q7 -15 7 -44l1 -117l-2 -32q-2 -24 -29 -39.5t-53 -15.5l-450 4
v40h79zM253 40h117q28 0 37 19q5 12 5 45v107q0 24 -10 35q-6 8 -31 21q-51 28 -67 38q-29 19 -51 46v-311zM253 384l64 47q8 -4 18 -4q32 0 45 14q19 21 22 25q10 21 10 75q0 97 -76 97q-52 0 -71 -65q-13 -44 -13 -130v-31q0 -14 1 -28z" />
    <glyph glyph-name="Atilde" unicode="&#xc3;" horiz-adv-x="573" 
d="M37 665h357q43 0 90 5q5 1 26 5q18 3 24 3q31 0 31 -37q0 -5 -19 -56q-7 -19 -12 -53q-5 -38 -9 -52q-6 -21 -24 -21q-15 0 -21 12q-2 4 -9 29q-22 79 -60 107q-25 18 -72 18h-76v-585h79v-40h-305v40h79v585h-79v40z" />
    <glyph glyph-name="Adieresis" unicode="&#xc4;" horiz-adv-x="657" 
d="M496 665v-40h-54q20 -210 85 -460q32 -124 52 -124q4 0 17.5 5.5t25.5 5.5q28 0 28 -32q0 -8 -13 -42t-20 -68q-4 -26 -9 -54q-8 -25 -27 -25q-23 0 -29 42q-12 83 -64 111q-30 16 -97 16h-98q-89 0 -118 -13q-45 -20 -64 -92q-4 -13 -11 -41q-10 -23 -27 -23
q-15 0 -22 17q-6 33 -16 87q-4 17 -25 73q-3 8 -3 16q0 28 37 28q6 0 17.5 -2t17.5 -2q20 0 27 24q3 11 8 47q19 151 123 325q25 41 35 65q18 41 18 73q0 43 -56 43h-52v40h314zM247 40h166l-19 71q-27 100 -39 153q-9 41 -31 153l-10 52q-63 -79 -107 -199
q-40 -108 -40 -168q0 -40 21 -52q16 -10 59 -10z" />
    <glyph glyph-name="Aring" unicode="&#xc5;" horiz-adv-x="687" 
d="M344 333h35q-6 22 -23 39.5t-37 17.5q-69 0 -107 -44q11 -66 24 -109q27 -87 27 -154q0 -26 -9 -50q13 -7 35 -7q145 0 177 143h-48v39h249v-39l-35 -1q-42 -77 -116 -128q-79 -54 -162 -54q-93 0 -155 18q2 16 2 24q0 56 -57.5 126.5t-74.5 100.5q-29 53 -29 118
q0 162 110 242q87 63 215 63q90 0 156 -34q77 -38 107 -115h45v-40h-235v40h30q-23 109 -126 109q-72 0 -108 -72q-28 -56 -28 -136q0 -24 3 -47q66 59 159 59q57 0 105.5 -29t67.5 -80h39v-41h-236v41z" />
    <glyph glyph-name="AE" unicode="&#xc6;" horiz-adv-x="945" 
d="M347 665h251v-40h-52v-249h7l42 84q6 11 19 40q40 85 65 117q47 61 111 61q45 0 82 -17l-8 -26q-10 -22 -13 -33q0 -1 -3 -42l-2 -29h-19l-31 12q-24 12 -50 12q-47 0 -96 -77q-17 -27 -59 -117q132 -19 201.5 -102t69.5 -219h57v-40h-269v40h44q0 107 -25 180
q-37 109 -123 116v-296h49v-40h-244v40h48v296q-85 0 -123 -114q-25 -76 -25 -182h44v-40h-270v40h58q0 135 70 218.5t201 102.5q-40 85 -59 116q-50 78 -96 78q-20 0 -50 -12l-30 -12h-19l-2 29q-1 19 -3 46q-10 19 -13 29l-9 26q36 17 83 17q63 0 110 -60q22 -28 66 -118
q20 -41 61 -124h6v249h-52v40z" />
    <glyph glyph-name="Ccedilla" unicode="&#xc7;" horiz-adv-x="603" 
d="M206 304l-2 55q92 0 123 15q50 24 50 103v31q0 130 -83 130q-95 0 -95 -103q0 -16 3 -37q0 -11 -13 -11h-17q-57 0 -121 -11q-9 -2 -11 0t-2 19q0 104 100 151q68 32 162 32t162 -39q82 -47 82 -134q0 -75 -62 -118q-24 -17 -97 -41l-9 -3v-17q17 -2 54 -13
q56 -17 85 -41q51 -43 51 -118q0 -80 -54 -131.5t-135 -51.5q-23 0 -53 6q-8 2 -74 19q-54 15 -68 15q-38 0 -38 -59q0 -6 2 -17.5t2 -16.5q0 -13 -9 -13l-22 2q-22 2 -35 2q-12 0 -25.5 -6.5t-16.5 -6.5q-27 0 -27 65q0 47 24 81q27 38 73 38q22 0 64 -14q32 -12 64 -23
q55 -18 85 -18q76 0 76 129v19q0 10 1 21q0 8 -1 13q-8 97 -110 97h-83z" />
    <glyph glyph-name="Egrave" unicode="&#xc8;" horiz-adv-x="736" 
d="M473 460l-210 -256v-164h66v-40h-292v40h79v585h-79v40h292v-40h-66v-358l210 257v101h-65v40h291v-40h-79v-585h79v-40h-291v40h65v420z" />
    <glyph glyph-name="Eacute" unicode="&#xc9;" horiz-adv-x="736" 
d="M473 460l-210 -256v-164h66v-40h-292v40h79v585h-79v40h281v-40h-55v-358l210 257v101h-55v40h281v-40h-79v-585h79v-40h-291v40h65v420zM480 848l42 -16q-21 -54 -58 -93q-45 -47 -95 -47q-56 0 -94 51q-31 43 -40 104l37 10q29 -78 90 -78q83 0 118 69z" />
    <glyph glyph-name="Ecircumflex" unicode="&#xca;" horiz-adv-x="683" 
d="M263 372h35l14 26l15 34l20 41q52 106 74 137q49 68 115 68q47 0 83 -17q-7 -18 -20 -54q-1 -4 -3 -30q-3 -30 -3 -46h-19l-31 12q-22 12 -51 12q-56 0 -155 -194q138 -31 201.5 -106.5t63.5 -214.5h57v-40h-258v40h37q0 139 -29 199q-38 78 -146 99v-298h59v-40h-285v40
h79v585h-79v40h292v-40h-66v-253z" />
    <glyph glyph-name="Edieresis" unicode="&#xcb;" horiz-adv-x="631" 
d="M338 40h62q-34 103 -63 232q-10 51 -34 170l-16 79q-20 -23 -54 -85q-73 -134 -73 -229q0 -44 1 -53q4 -42 24.5 -42t25.5 -41q1 -7 1 -57q0 -24 -34 -24q-8 0 -24 2.5t-25 2.5h-12q-8 0 -23 -1.5t-22 -1.5q-32 0 -35 34v34q0 63 29 136q15 41 60 127l102 195
q28 59 28 83q0 16 -7.5 20t-24.5 4h-65v40h313v-40h-58q34 -248 116 -520q5 -16 9 -34l9 -31h69v-40h-279v40z" />
    <glyph glyph-name="Igrave" unicode="&#xcc;" horiz-adv-x="1025" 
d="M413 40l-104 482q-109 -168 -109 -304q0 -28 9 -100q5 -40 5 -57v-18q0 -9 1 -18q0 -17 -4 -24q-6 -11 -32 -11q-9 0 -26 2t-24 3h-11q-8 0 -24 -1.5t-24 -1.5q-33 0 -33 68q0 124 74 238q18 28 75 104q50 67 71 105q29 53 29 95v11q-2 8 -2 12h-70v40h272v-40h-54
l121 -558l105 558h-41v40h255v-40h-61l127 -585h65v-40h-254v40h42l-108 500l-93 -500h50v-40h-277v40h50z" />
    <glyph glyph-name="Iacute" unicode="&#xcd;" horiz-adv-x="736" 
d="M263 347v-307h66v-40h-292v40h79v585h-79v40h292v-40h-66v-232h209l1 232h-65v40h291v-40h-79v-585h79v-40h-291v40h65l-1 307h-209z" />
    <glyph glyph-name="Icircumflex" unicode="&#xce;" horiz-adv-x="605" 
d="M309 691q9 0 22 -13l18 -20q28 -29 90 -83q65 -57 93 -105q34 -58 34 -133q0 -66 -25 -119q-22 -46 -73 -98q-26 -26 -100 -99q-47 -46 -64 -46q-18 0 -97 68q-85 74 -112 109q-56 74 -56 170q0 101 68 194q42 57 118 118q14 11 40 34q21 23 44 23zM246 565
q-49 -7 -82 -47.5t-33 -91.5q0 -79 143 -220q40 -39 48 -49q26 -32 30 -60q43 17 75 52q36 37 43 79q2 12 2 16t-2 16q-8 44 -61 106q-25 28 -65 73l-58 64q-32 37 -40 62z" />
    <glyph glyph-name="Idieresis" unicode="&#xcf;" horiz-adv-x="736" 
d="M263 625v-585h66v-40h-292v40h79v585h-79v40h662v-40h-79v-585h79v-40h-291v40h65v585h-210z" />
    <glyph glyph-name="Eth" unicode="&#xd0;" horiz-adv-x="630" 
d="M263 254v-214h79v-40h-305v40h79l1 561q0 77 231 77q99 0 164 -45q76 -51 76 -145q0 -75 -42 -127q-45 -57 -118 -57q-28 0 -51 10q-10 6 -27 15l-21 10zM263 311l61 77q18 -16 35 -16q62 0 62 118q0 148 -80 148q-54 0 -70 -66q-8 -33 -8 -133v-128z" />
    <glyph glyph-name="Ntilde" unicode="&#xd1;" horiz-adv-x="658" 
d="M632 430h-249v39h40q0 169 -102 169q-66 0 -94 -74q-20 -52 -20 -130q0 -92 35 -238q20 -80 20 -133q0 -15 -7 -40l-4 -14q6 -5 22 -5q65 0 111 86q40 74 40 145q0 17 -1 25h-40v40h249v-40h-39q0 -116 -105 -201q-98 -80 -217 -80q-41 0 -70 12v13q0 37 -30 83
q-8 13 -54 72q-49 63 -66 116q-11 35 -11 84v25q0 128 81.5 211t209.5 83q106 0 175 -53.5t87 -155.5h39v-39z" />
    <glyph glyph-name="Ograve" unicode="&#xd2;" horiz-adv-x="736" 
d="M294 40v585h-40q-57 0 -72 -13q-29 -25 -54 -125l-2 -8q-2 -10 -5 -20q-7 -20 -24 -20q-28 0 -28 43q0 38 -17 83q-8 20 -19 45q-10 22 -10 32q0 36 42 36q80 -15 128 -14l34 1l316 -1q43 -1 128 14q17 0 29 -10t12 -26q0 -6 -28 -77q-18 -46 -18 -83q0 -20 -2 -26
q-6 -17 -25 -17q-17 0 -26 28q-3 9 -14 51q-18 68 -44 91q-18 16 -55 16h-59v-585h80v-40h-305v40h78z" />
    <glyph glyph-name="Oacute" unicode="&#xd3;" horiz-adv-x="650" 
d="M407 0h-50l-4 -73v-43q0 -46 11 -98q2 -9 2 -13q0 -2 -2 -10l-89 -7q0 58 14 182l7 62h-86l-151 625h-39v40h255v-40h-65l119 -506q34 159 48 219q29 123 59 216q40 124 122 124q21 0 44 -6q29 -8 37 -20q-1 -9 -8 -29q-12 -24 -12 -102h-14l-17 9q-8 5 -18 9.5t-21 4.5
q-80 0 -130 -226q-9 -46 -28 -137l-15 -69q-4 -23 -17 -72h48v-40z" />
    <glyph glyph-name="Ocircumflex" unicode="&#xd4;" horiz-adv-x="890" 
d="M593 0h-296v40h79v85l-37 -11q-50 -15 -94 -15q-81 0 -140 44q-66 49 -66 127q0 81 74 154q41 41 130 96q41 25 61 40q35 25 72 56v9h-80v40h298v-40h-80v-9q49 -40 71 -56q11 -8 62 -40q91 -57 129 -95q75 -74 75 -155q0 -77 -66 -126q-60 -45 -140 -45q-44 0 -94 15
l-37 11v-85h79v-40zM514 569v-411q20 -5 45 -5q63 0 100 50q34 46 34 111q0 68 -51 133q-36 45 -128 122zM376 569q-66 -55 -92 -81q-87 -87 -87 -174q0 -67 33 -111q37 -50 102 -50q22 0 44 5v411z" />
    <glyph glyph-name="Otilde" unicode="&#xd5;" horiz-adv-x="684" 
d="M373 417l217 -377h81v-40h-339v40h90l-148 251l-55 -106q-12 -23 -26 -61q-16 -44 -16 -62q0 -23 43 -23q16 0 24 1v-40h-230v40q10 -1 14 -1q51 0 85 43q20 26 61 113l13 28l57 118l-166 284h-63v40h297v-40h-71l100 -162q44 95 79 140q58 75 125 75q19 0 52 -8
q41 -9 41 -21q0 -11 -26 -53l-9 -50q1 -12 -3 -24q-5 0 -14 -1h-13q-16 0 -41.5 17t-35.5 17q-61 0 -123 -138z" />
    <glyph glyph-name="Odieresis" unicode="&#xd6;" horiz-adv-x="784" 
d="M695 665v-40h-78v-585h32q15 0 45.5 4t45.5 4q21 0 32.5 -15t11.5 -36q0 -22 -16 -67q-26 -73 -30 -112q-2 -19 -6 -28q-7 -16 -23 -16q-19 0 -26 24q-9 32 -23 88q-15 60 -33 81q-28 33 -93 33h-497v40h79v585h-79v40h292v-40h-66v-585h206v585h-66v40h292z" />
    <glyph glyph-name="multiply" unicode="&#xd7;" horiz-adv-x="736" 
d="M473 40l-1 252q-60 -20 -132 -20q-96 0 -149 40.5t-75 129.5t-22 183h-57v40h285v-40h-64q0 -17 -1 -51t-1 -51q0 -90 25 -129q21 -33 59 -55t76 -22q29 0 56 13l1 295h-59v40h285v-40h-79v-585h79v-40h-291v40h65z" />
    <glyph glyph-name="Oslash" unicode="&#xd8;" horiz-adv-x="1052" 
d="M260 40h192v585h-65v40h278v-40h-66v-585h193v585h-66v40h291v-40h-79v-585h79v-40h-983v40h79v585h-79v40h292v-40h-66v-585z" />
    <glyph glyph-name="Ugrave" unicode="&#xd9;" horiz-adv-x="1105" 
d="M263 40h192v585h-65v40h278v-40h-66v-585h192v585h-65v40h292v-40h-80v-585h33q14 0 41 4t41 4q44 0 44 -51q0 -22 -16 -67q-26 -74 -30 -113q-2 -20 -5 -27q-7 -16 -24 -16q-16 0 -26 26q-1 1 -11 40q-24 90 -41 115q-31 45 -104 45h-806v40h79v585h-79v40h292v-40h-66
v-585z" />
    <glyph glyph-name="Uacute" unicode="&#xda;" horiz-adv-x="788" 
d="M525 665v-40h-78v-234q38 -33 97 -55q65 -23 110 -21l38 2q39 2 52 -21q6 -11 6 -41v-189q0 -38 -11 -52t-46 -14h-473v40h79v585h-63q-60 0 -93 -45q-18 -25 -34 -81q-3 -12 -8 -28q-6 -12 -22 -12q-18 0 -24 20q-3 10 -6 42q-2 19 -5 31q-5 22 -14 25q-15 6 -15 62
q0 38 31 38q7 0 35 -7q24 -5 45 -5h399zM447 40h85q33 0 46 6q25 11 25 47l-1 136q-1 26 -9 34t-37 17q-69 23 -109 58v-298z" />
    <glyph glyph-name="Ucircumflex" unicode="&#xdb;" horiz-adv-x="946" 
d="M342 665v-40h-79v-234q37 -35 108 -59q62 -21 98 -20l39 1q6 1 17 1q42 0 42 -62v-186q0 -38 -11 -52t-47 -14h-472v40h79v585h-79v40h305zM683 40v585h-79v40h305v-40h-79v-585h79v-40h-305v40h79zM263 40h86q32 0 45 6q26 12 26 47l-1 136q-1 26 -9 34t-36 17
q-67 22 -111 58v-298z" />
    <glyph glyph-name="Udieresis" unicode="&#xdc;" horiz-adv-x="604" 
d="M342 665v-40h-79v-234q37 -35 108 -59q62 -21 98 -20l39 1q6 1 17 1q42 0 42 -62v-186q0 -38 -11 -52t-47 -14h-472v40h79v585h-79v40h305zM263 40h86q32 0 45 6q26 12 26 47l-1 136q-1 26 -9 34t-36 17q-67 22 -111 58v-298z" />
    <glyph glyph-name="Yacute" unicode="&#xdd;" horiz-adv-x="693" 
d="M14 489v40h45q30 77 107 116q65 33 156 33q163 0 247.5 -89.5t84.5 -256.5q0 -164 -72 -257q-79 -104 -236 -104q-35 0 -103 25q-41 15 -51 15q-37 0 -37 -59q0 -19 3 -34v-9l-7 -5q-10 0 -30 2.5t-30 2.5q-12 0 -25 -6.5t-15 -6.5q-29 0 -29 65q0 46 27 82.5t72 36.5
q18 0 51 -14q26 -12 51 -23q46 -19 72 -19q101 0 151 89q41 72 41 182l-47 -26q-16 -7 -30 -7q-7 0 -19.5 -1t-19.5 -1q-20 0 -79 24q-34 14 -64 14q-44 0 -99 -34l-22 28q39 55 66 76q40 31 91 31q53 0 99 -27q68 -40 91 -40q16 0 33 15q0 291 -155 291q-98 0 -113 -109h30
v-40h-235z" />
    <glyph glyph-name="Thorn" unicode="&#xde;" horiz-adv-x="948" 
d="M262 380h128q18 129 178 254q14 11 41 35q20 22 43 22q9 0 21 -13l18 -20q29 -30 91 -83q65 -57 93 -105q34 -58 34 -133q0 -66 -25 -119q-22 -46 -71 -98q-19 -18 -103 -99q-47 -46 -63 -46q-17 0 -105 76q-75 65 -101 98q-59 76 -59 165q0 17 1 26h-121v-300h79v-40
h-305v40h79v585h-79v40h305v-40h-79v-245zM589 565q-49 -6 -82 -47t-33 -92q0 -81 143 -219q71 -68 79 -112q104 45 117 133q2 14 2 16q0 48 -63 122q-20 24 -65 73l-58 64q-32 37 -40 62z" />
    <glyph glyph-name="germandbls" unicode="&#xdf;" horiz-adv-x="684" 
d="M647 665v-40h-79v-585h79v-40h-272v40h46v291q-108 0 -158 -97q-39 -74 -39 -194h37v-40h-245v40h44q0 135 81 218.5t215 83.5v14q-112 15 -187 63q-96 61 -96 161q0 57 40 74q26 11 106 11h428zM421 401v224h-108q-73 0 -73 -58q0 -70 55 -118t126 -48z" />
    <glyph glyph-name="agrave" unicode="&#xe0;" 
d="M223 441h97q10 0 12 -5q0 -22 6 -44l15 -55l7 -28q34 -135 58 -206q6 -18 34 -95q0 -8 -19 -8h-97q-9 0 -13 33q-5 14 -10 31l-11 37l-12 43q-47 -155 -150 -155q-50 0 -77 38q-25 34 -25 86q0 47 46 112q16 23 73 88q12 14 41 45q16 17 16 27t-5 26.5t-5 24.5q0 5 19 5z
M231 348q-95 -104 -95 -174q0 -27 14.5 -46t41.5 -19q32 0 56.5 23t24.5 54q0 16 -6 36l-10 33l-12 42z" />
    <glyph glyph-name="aacute" unicode="&#xe1;" horiz-adv-x="500" 
d="M239 410h-59q-11 -81 -11 -166q136 0 208 -57q33 -27 54 -68t21 -83q0 -25 -15 -32q-9 -4 -39 -4h-317q-23 0 -28 25q-1 7 -1 44q0 50 2 130l5 140q0 31 -1 62q4 40 32 40h209q6 0 116 4q44 2 44 -22q0 -17 -21 -53q-15 -26 -39 -88l-44 2q4 21 4 41v30q-4 37 -36 48
q-21 7 -84 7zM168 32h152q2 7 2 17v14q0 138 -153 138q-2 -11 -2 -20z" />
    <glyph glyph-name="acircumflex" unicode="&#xe2;" horiz-adv-x="500" 
d="M92 441h228q50 0 66 -7q25 -11 25 -46q0 -57 -60 -94q-36 -23 -111 -45v-6q87 -20 143 -57q76 -50 76 -123q0 -41 -25 -54q-17 -9 -60 -9h-291q-27 0 -32 73q1 -11 1 90q0 -102 -3 86q-1 80 7 127q10 65 36 65zM169 267q45 0 81 30t36 75q0 25 -23 33q-13 5 -44 5
q-7 0 -22 -1h-21q-7 -67 -7 -142zM170 34l60 -2q49 -2 67 7q23 11 23 49q0 47 -38 90q-46 52 -113 52l-2 -79z" />
    <glyph glyph-name="atilde" unicode="&#xe3;" horiz-adv-x="411" 
d="M223 410h-57q-12 -92 -12 -154q0 -90 16 -229q0 -16 -3 -19q-7 -8 -34 -8h-57q-25 0 -34 59q-6 43 -5 115q3 139 3 79q0 117 -1 104q6 86 37 85l39 -1q21 -1 116 1q42 0 124 2q4 0 9 1h6q30 0 30 -21q0 -13 -17 -41l-18 -37q-12 -24 -21 -57q-1 -5 -4 -13l-40 4
q6 60 6 49q0 46 -18.5 63.5t-64.5 17.5z" />
    <glyph glyph-name="adieresis" unicode="&#xe4;" horiz-adv-x="525" 
d="M292 -1h-73q-96 0 -96 -73q0 -40 25 -98l-48 -7q-31 75 -74 135q-9 13 -17.5 30.5t-8.5 27.5q0 21 26 21h18q40 0 55 22q25 36 63 155.5t38 163.5q0 16 -7.5 35t-7.5 25q0 8 22 7l57 -2q-8 0 69 3q20 1 20 -22q0 -38 14 -100q9 -39 27 -97q41 -130 62 -168q14 -25 33 -23
l9 1q27 0 27 -21q0 -11 -8 -28q-20 -31 -58 -92q-22 -42 -35 -73l-48 7q26 62 26 98q0 73 -110 73zM130 32h216q-16 26 -33 72q-45 122 -58 211l-6 42h-14q-10 -55 -26 -112q-20 -70 -55 -162q-11 -28 -24 -51z" />
    <glyph glyph-name="aring" unicode="&#xe5;" 
d="M439 399l24 -29q-49 -34 -88 -34t-81 47q-10 12 -23 25t-28 13q-73 0 -73 -195q23 18 61 35q42 19 65 19q27 0 61 -18t39 -18q17 0 36 15l19 -25q-24 -29 -52.5 -49.5t-48.5 -20.5t-44 16q-45 30 -71 30q-31 0 -64 -28q0 -69 31 -116q35 -54 101 -54q56 0 123 49l17 -20
q-66 -73 -170 -73q-87 0 -148 41q-88 59 -88 184v32q0 78 47 146q58 84 156 84q44 0 88 -18q22 -9 55 -29q21 -16 35 -16q11 0 21 7z" />
    <glyph glyph-name="ae" unicode="&#xe6;" horiz-adv-x="684" 
d="M399 196q0 -96 10 -169q3 -18 -9 -24q-6 -3 -28 -3h-54q-22 0 -28 16q-3 10 -5 101l-2 79q-76 -15 -124 -154q-9 -26 -9 -27q-8 -17 -20 -16l-21 1h-20l-23 -1l-27 -2q-23 -2 -23 17q0 12 16 45q72 150 215 166q-53 113 -126 113q-14 0 -30 -12q-9 -9 -18 -9
q-11 0 -11 21q0 32 -7 54l-14 44q0 16 27 16q54 0 127 -88q50 -60 89 -134l1 145q0 34 2 42q5 24 28 24h68q22 0 22 -13q-8 -35 -8 -94v-104l20 34q36 62 84 114q67 74 114 74q27 0 27 -16q-21 -53 -21 -98q0 -21 -11 -21q-7 0 -15 7q-13 10 -15 11q-5 3 -17 3
q-71 0 -126 -113q140 -15 209 -151q22 -43 22 -60q0 -19 -23 -17l-28 2l-23 1l-41 -1q-13 0 -25 33q-53 151 -129 164z" />
    <glyph glyph-name="ccedilla" unicode="&#xe7;" horiz-adv-x="500" 
d="M189 188v40q62 0 91 22q33 25 33 85q0 85 -65 85q-37 0 -56 -25q-20 -28 -18 -55l1 -13l2 -14q0 -17 -50 -29q-37 -8 -64 -8q-1 12 -1 16q0 81 66 123q56 37 141 37q67 0 112 -24q58 -30 58 -91q0 -107 -148 -124v-6l22 -5q146 -18 146 -122q0 -60 -36 -93t-97 -33
q-34 0 -82 17q-32 11 -47 16q-19 6 -28 6q-73 0 -163 -49l-20 24q41 45 62 61q38 29 77 29q20 0 59 -26q31 -21 73 -21q35 0 53 30q16 25 16 62q0 38 -27.5 61.5t-66.5 23.5h-43z" />
    <glyph glyph-name="egrave" unicode="&#xe8;" horiz-adv-x="501" 
d="M163 256l162 97v55q5 33 32 33h83q12 0 12 -14l-4 -39q-4 -24 -10 -64q-2 -24 -2 -68q0 -122 15 -229q3 -18 -9 -24q-7 -3 -29 -3h-56q-29 0 -34 144q0 -14 0 169l-160 -95q0 -78 16 -191q3 -18 -9 -24q-7 -3 -29 -3h-57q-11 0 -15 2q-10 6 -12 35l-4 60q0 24 -3 82
q-2 50 -2 74v103q6 85 35 85h84q13 0 13 -14l-5 -39q-12 -94 -12 -132z" />
    <glyph glyph-name="eacute" unicode="&#xe9;" horiz-adv-x="501" 
d="M163 256l162 97v55q5 33 32 33h83q12 0 12 -14l-4 -39q-4 -24 -10 -64q-2 -24 -2 -68q0 -122 15 -229q3 -18 -9 -24q-7 -3 -29 -3h-56q-29 0 -34 144q0 -14 0 169l-160 -95q0 -78 16 -191q3 -18 -9 -24q-7 -3 -29 -3h-57q-11 0 -15 2q-10 6 -12 35l-4 60q0 24 -3 82
q-2 50 -2 74v103q6 85 35 85h84q13 0 13 -14l-5 -39q-12 -94 -12 -132zM358 608l21 -13q-52 -116 -119 -116q-20 0 -43 34q-27 39 -36 88l-5 26l25 7q26 -69 72 -69q56 0 77 31z" />
    <glyph glyph-name="ecircumflex" unicode="&#xea;" horiz-adv-x="448" 
d="M165 239h8q117 213 212 213q42 0 42 -15q0 -10 -8 -21q-17 -24 -20 -77l-1 -20l-24 -1q-14 30 -44 30q-24 0 -56 -27q-20 -17 -53 -63l-20 -28q97 -27 156 -83q73 -69 73 -138q0 -12 -24 -12h-12l-34 3q-8 0 -24 -2t-24 -2q-14 0 -21 41q-10 59 -40 103q-34 49 -86 66
q0 -108 10 -179q2 -15 -2 -19q-8 -8 -42 -8h-45q-24 0 -33 59q-6 43 -5 116q3 140 3 78q0 114 -1 105q6 87 36 85l25 -2l48 3q9 1 10 0q12 -3 12 -14q0 -19 -5 -50q-7 -41 -8 -50q-3 -34 -3 -91z" />
    <glyph glyph-name="edieresis" unicode="&#xeb;" horiz-adv-x="448" 
d="M204 368q-5 -20 -27 -70q-53 -121 -53 -179q0 -39 16 -72q1 -2 11 -19q9 -13 9 -17q0 -12 -18 -12l-51 1l-45 -2q-19 -1 -24.5 6t-5.5 27q0 64 49 151q16 29 55 88q13 19 37.5 59t24.5 65q0 12 -5 28q-2 7 0 11q5 8 19 8h85q19 0 24.5 -3.5t5.5 -20.5q0 -27 18 -98
q13 -53 23 -83q34 -107 52 -152q11 -28 29 -70q0 -15 -16 -15q-6 1 -10 1l-39 1l-38 -1q-22 -1 -31.5 18t-48.5 159l-13 47l-10 36q-3 12 -9 43z" />
    <glyph glyph-name="igrave" unicode="&#xec;" horiz-adv-x="656" 
d="M181 441h74q21 0 27 -15q0 -2 4 -37q8 -71 58 -266q11 76 49 154q25 51 25 73q0 15 -3.5 43.5t-3.5 42.5q0 5 11 5h88q27 0 28 -15q14 -150 35 -225q10 -34 32 -87q27 -65 34 -85q3 -7 3 -15q0 -14 -21 -14h-64q-34 0 -71 103q-20 55 -39 148l-8 39q-66 -144 -66 -247
v-20q1 -5 0 -14t-8 -9h-73q-16 0 -20 3q-12 9 -22 41q-31 96 -67 282q-85 -107 -85 -218q0 -19 6 -42q4 -16 17 -50q3 -8 3 -10q0 -6 -10 -6h-82q-16 0 -16 42q0 81 83 214q24 38 36 61q24 45 24 76q-1 6 -1 10q-2 12 -2 17q0 13 7 18q4 3 18 3z" />
    <glyph glyph-name="iacute" unicode="&#xed;" horiz-adv-x="496" 
d="M316 220l-155 2q0 -20 1 -33l5 -69q0 -16 5 -46.5t5 -46.5q0 -20 -17 -25q-6 -2 -34 -2h-44q-22 0 -30 60q-7 43 -6 115q2 209 2 78q0 117 -1 104q5 86 35 85l28 -1l43 2h10q13 -2 13 -14q0 -22 -9 -92q-5 -39 -5 -76l154 -3v102q6 83 37 82l28 -1h30q9 2 13 2h11
q13 -2 13 -14q0 -10 -4 -27q-5 -22 -6 -28q-7 -54 -7 -118q0 -90 16 -229q0 -20 -16 -25q-6 -2 -34 -2h-44q-24 0 -34 51q-7 36 -6 99q3 139 3 70z" />
    <glyph glyph-name="icircumflex" unicode="&#xee;" horiz-adv-x="421" 
d="M37 193q0 109 68 202q59 80 102 80q48 0 104 -53q73 -69 73 -174q0 -68 -53 -168q-58 -112 -119 -112t-120 83q-55 78 -55 142zM134 369q-30 -36 -30 -77q0 -64 40 -128q50 -80 128 -80q12 0 18 1q16 32 16 70q0 80 -46 141q-49 64 -126 73z" />
    <glyph glyph-name="idieresis" unicode="&#xef;" horiz-adv-x="499" 
d="M325 410h-144q-14 -86 -14 -154q0 -87 15 -227q0 -20 -8 -24.5t-30 -4.5h-55q-24 0 -34 59q-7 43 -6 115q3 161 3 79q0 106 0 104q6 84 37 84l335 2q23 2 23 -15q0 10 -7 -44q-9 -70 -9 -128q0 -112 15 -229q2 -18 -9 -24q-7 -3 -29 -3h-55q-25 0 -34 59q-7 43 -6 115
q3 153 3 79q0 94 9 157z" />
    <glyph glyph-name="eth" unicode="&#xf0;" horiz-adv-x="448" 
d="M140 68l4 -32q8 -64 8 -152q0 -127 -60 -127q-19 0 -22 9v6q1 7 1 23v100q0 31 -5 82q-17 174 -17 223q0 114 72 201q61 73 107 73q49 0 106 -87q64 -98 64 -209q0 -72 -30 -126q-36 -66 -103 -66q-37 0 -72 24t-53 58zM166 385q-40 -60 -40 -148q0 -83 43 -142
q38 -52 76 -52q26 0 40 25q11 20 11 49v35q0 59 -39 132q-41 77 -91 101z" />
    <glyph glyph-name="ntilde" unicode="&#xf1;" horiz-adv-x="395" 
d="M324 156l31 -25q-23 -49 -62 -98q-52 -65 -90 -65q-55 0 -112 104q-51 95 -51 157q0 61 47 148q53 98 107 98q26 0 87 -32q66 -35 66 -56q0 -8 -27 -37q-21 -22 -32 -41q-7 -12 -10 -12q-24 26 -57 60q-30 23 -75 33q-16 -34 -16 -83q0 -64 40 -131q42 -71 100 -93
q19 19 41 53z" />
    <glyph glyph-name="ograve" unicode="&#xf2;" horiz-adv-x="600" 
d="M522 263l-49 9q13 37 13 54q0 85 -112 85h-18l-2 -155q-3 -168 6 -233q2 -18 -10 -24q-7 -3 -28 -3h-56q-25 0 -29 45q0 2 1 63l1 59v41l2 109l3 98h-17q-112 0 -112 -85q0 -6 12 -54l-49 -9q-19 59 -55 113q-8 11 -11 18q-6 12 -6 25q0 12 8 23t20 11q-12 0 55 -6
q51 -6 123 -6h220q45 0 112 10q14 2 22 2q12 0 20 -11t8 -23q0 -13 -4.5 -22.5t-11.5 -20.5q-12 -18 -32 -55q-13 -26 -24 -58z" />
    <glyph glyph-name="oacute" unicode="&#xf3;" horiz-adv-x="480" 
d="M211 48l2 -16h38q11 129 37 237q18 74 39 111q41 72 109 72q44 0 44 -19q0 -11 -17 -42q-5 -15 -5 -31v-32q0 -12 -2 -18l-22 -1q-6 24 -36 24q-102 0 -102 -335q0 -95 6 -137q13 -91 13 -97q0 -22 -81 -22q-17 0 -17 22q0 54 3.5 80.5t14.5 108.5l6 47h-55q-46 0 -79 -3
q-10 0 -10 10q1 7 1 10v21q0 73 -22 179q-20 97 -48 174q-10 27 -10 41q0 12 51 12q29 0 39 -2q20 -1 41 -39.5t43 -182.5q19 -126 19 -172z" />
    <glyph glyph-name="ocircumflex" unicode="&#xf4;" horiz-adv-x="704" 
d="M313 -244v266q-48 -33 -112 -33q-70 0 -117 42.5t-47 112.5q0 101 174 229q66 49 84 80q14 25 12 61l-4 74l-4 52q-1 14 39 24q31 8 52 8q16 0 15 -19q0 -7 -1 -18l-6 -121q-2 -46 24 -80q15 -19 71 -61q83 -62 115 -97q59 -64 59 -132t-47.5 -111.5t-117.5 -43.5
q-61 0 -110 33v-266h-79zM312 55l-7 345l-37 -34q-79 -72 -93 -98q-19 -33 -19 -77q0 -60 28 -100q31 -45 89 -45q17 0 39 9zM399 400l-6 -345q22 -9 38 -9q56 0 89 46q28 40 28 99q0 53 -28 92q-8 11 -60 59l-38 35q-11 14 -23 23z" />
    <glyph glyph-name="otilde" unicode="&#xf5;" horiz-adv-x="447" 
d="M39 441h62q8 0 24 3q13 0 21 -23q5 -12 10 -25q22 -58 55 -133l17 -39q30 107 44 138q41 90 99 90q14 0 38 -8q27 -11 27 -22q0 -15 -7 -20q-16 -13 -16 -60q0 -31 1 -39l-18 -11q-24 26 -49 26q-34 0 -62 -58q-8 -16 -32 -87q14 -37 36 -85l102 -217l26 -46
q19 -34 19 -45q0 -13 -13 -13h-88q-19 0 -40 48q-1 4 -33 74l-44 97l-28 65q-54 -186 -92 -248q-22 -36 -50 -36q-34 0 -34 22q0 13 20 41q36 51 75 137t53 147l-28 65l-27 57l-56 122q-30 66 -30 64q0 19 18 19z" />
    <glyph glyph-name="odieresis" unicode="&#xf6;" horiz-adv-x="541" 
d="M176 32h144l-6 221q-3 113 8 157q8 33 29 32l39 -1l32 2h11q13 -2 13 -14q0 -9 -1 -13q-12 -44 -14 -106l-2 -108v-50q0 -99 26 -106q7 -2 17 0q11 4 19 5q15 4 23 4q27 0 27 -23q0 -15 -19 -62q-4 -12 -15 -46l-32 -101h-53q11 37 11 70q0 57 -27 78q-39 31 -151 29
l-74 -1l-98 -4q-22 -1 -30 60q-6 43 -4 118q3 127 3 80q0 95 1 104q6 86 35 85l39 -1l34 2h9q12 -2 12 -14q0 -19 -5 -51l-8 -52q-2 -30 -2 -70q0 -42 2 -72q7 -106 7 -152z" />
    <glyph glyph-name="divide" unicode="&#xf7;" 
d="M385 445q36 -7 36 -17l-12 -66q-5 -31 -5 -106q0 -39 8 -115t8 -114q0 -19 -12 -24q-7 -3 -30 -3h-51q-25 0 -35 50q-7 37 -5 100q3 121 3 70q-7 1 -11 1q-23 0 -54.5 -19.5t-58.5 -19.5q-39 0 -83 82q-35 65 -57 145q-3 8 -3 17q0 15 30 15h79q18 0 23 -7.5t8 -28.5
q8 -53 25 -92q27 -60 67 -60h11q15 0 23 8q0 106 0 101q6 78 41 80z" />
    <glyph glyph-name="oslash" unicode="&#xf8;" horiz-adv-x="763" 
d="M440 32h148q-9 101 -9 222q0 115 -1 104q6 85 37 84l28 -1h30q10 2 14 2h10q12 -2 12 -14q0 -7 -1 -13l-8 -43q-7 -43 -7 -117q0 -73 5 -123l11 -106q0 -21 -16 -25q-5 -2 -34 -2h-570q-23 0 -32 60q-7 43 -6 116q2 231 2 78q0 105 0 104q6 85 36 84l29 -1h30q10 2 14 2
h10q12 -2 12 -14q0 -7 -1 -13l-7 -36q-8 -48 -8 -124q0 -37 4.5 -112t4.5 -112h148q-9 68 -9 222q0 95 1 104q6 85 37 84l28 -1l53 2q13 -2 13 -14q0 -13 -6 -51q-7 -42 -9 -55q-2 -29 -2 -67q0 -17 5 -132z" />
    <glyph glyph-name="ugrave" unicode="&#xf9;" horiz-adv-x="815" 
d="M439 32h148q-9 101 -9 222q0 115 -1 104q6 85 37 84l28 -1h30q10 2 14 2h10q13 -2 13 -14t-5 -31q-5 -24 -6 -32q-6 -49 -6 -107q0 -134 -1 -113q4 -90 28 -98q5 -2 16 0q4 1 21 5q14 4 22 4q27 0 27 -23q0 -15 -17 -60q-18 -48 -49 -149h-52q10 45 10 71q0 104 -98 104
h-511q-23 0 -32 60q-7 43 -6 116q2 231 2 78q0 105 0 104q6 85 36 84l29 -1h30q10 2 14 2h10q12 -2 12 -14q0 -8 -2 -18q-14 -68 -14 -154q0 -38 4.5 -113t4.5 -112h148q-9 68 -9 222q0 95 1 104q6 85 37 84l28 -1l43 2h10q13 -2 13 -14q0 5 -7 -46q-9 -66 -9 -126
q0 -23 2 -75l2 -57z" />
    <glyph glyph-name="uacute" unicode="&#xfa;" horiz-adv-x="657" 
d="M131 272l-49 -9q-22 64 -56 113q-8 15 -10 18q-5 11 -5 25q0 35 27 35q7 0 58 -8q32 -5 123 -5h89l54 1q13 0 13 -14q0 -8 -4 -20q-8 -25 -10 -74q-3 -81 -3 -70v-21q112 0 185.5 -57t73.5 -149q0 -39 -42 -39h-12l-54 2h-236q-10 0 -15 2q-17 7 -17 35v125q0 158 11 248
h-21q-53 0 -79 -16q-32 -19 -32 -68q0 -19 4 -35q1 -4 7 -19zM359 32l124 1l1 30q1 43 -19 77q-31 52 -107 61q-2 -16 -2 -34v-16q0 -34 1 -75z" />
    <glyph glyph-name="ucircumflex" unicode="&#xfb;" horiz-adv-x="659" 
d="M331 0h-246q-33 0 -33 37v125q0 -110 -3 86q-1 82 7 129q10 66 35 65l29 -1h29q10 2 14 2h11q12 -2 12 -14q0 -6 -4 -19q-6 -18 -10 -104q-2 -29 -2 -42v-20q122 0 195.5 -58t73.5 -149q0 -27 -19 -35q-10 -4 -35 -4h-16l-16 1zM170 32l124 1l1 30q1 43 -19 77
q-31 52 -107 61q-2 -16 -2 -34v-16q0 -34 1 -75zM476 254v104q6 85 37 84l28 -1l43 2h11q12 -2 12 -14q-16 -115 -16 -172q0 -140 15 -230q3 -20 -14 -25q-6 -2 -34 -2h-45q-25 0 -31 25q-2 9 -2 45q0 33 -2 106z" />
    <glyph glyph-name="udieresis" unicode="&#xfc;" horiz-adv-x="491" 
d="M331 0h-246q-33 0 -33 37v126q0 -107 -3 86q-1 81 7 128q10 66 35 65l29 -1h29q10 2 14 2h11q12 -2 12 -14q0 -17 -6 -47q-6 -35 -7 -48q-3 -37 -3 -69v-21q122 0 195.5 -58t73.5 -149q0 -27 -19 -35q-10 -4 -35 -4h-16l-16 1zM170 32l124 1l1 30q1 43 -19 77
q-31 52 -107 61q-2 -16 -2 -34v-16q0 -34 1 -75z" />
    <glyph glyph-name="yacute" unicode="&#xfd;" horiz-adv-x="469" 
d="M20 56l18 20q62 -48 126 -48q68 0 100 59q23 42 32 131q-54 -52 -116 -52q-30 0 -73 22q-22 12 -30 12q-21 0 -37 -14l-20 24q66 66 105 66q20 0 56.5 -21.5t61.5 -21.5q30 0 52 25q0 62 -31 104q-34 46 -94 46q-51 0 -127 -47l-18 19q84 70 176 70q97 0 162 -58
q67 -61 67 -156q0 -82 -37 -146q-60 -104 -197 -104q-104 0 -176 70z" />
    <glyph glyph-name="thorn" unicode="&#xfe;" horiz-adv-x="650" 
d="M163 250h104q15 90 78 163q54 62 88 62q45 0 102 -53q75 -69 75 -174q0 -70 -51 -169q-58 -111 -120 -111q-50 0 -109 71q-67 80 -67 172h-100q0 -46 4 -85l10 -99q0 -20 -17 -25q-6 -2 -34 -2h-44q-30 0 -35 117q1 -23 1 136q0 116 -1 104q5 86 35 85l28 -1h30q9 2 13 2
h10q13 -3 13 -15q0 -17 -4 -40q-9 -53 -9 -138zM365 369q-25 -27 -30 -77v-29q6 -61 49 -115q51 -64 120 -64q10 0 16 1q17 34 17 70q0 69 -40 130q-48 74 -132 84z" />
    <glyph glyph-name="ydieresis" unicode="&#xff;" horiz-adv-x="503" 
d="M172 441l268 1q6 0 8.5 -3.5t2.5 -10.5l-3 -58q-1 -42 -4 -125q-4 -63 -4 -71q0 -49 10 -134q2 -17 2 -23q0 -17 -41 -17h-50q-25 0 -30 20q0 27 -4 118l-3 71q-130 -29 -130 -165q0 -26 -6 -33q-10 -11 -48 -11h-38q-28 0 -35 1q-20 5 -20 23q0 54 52 115q63 74 155 85
v5q-80 16 -120 41q-60 36 -60 103q0 44 26 58q19 10 72 10zM278 410q-41 0 -52 -6q-19 -9 -19 -44q0 -50 34.5 -81.5t84.5 -31.5q0 85 7 163h-55z" />
    <glyph glyph-name="mu" unicode="&#xb5;" horiz-adv-x="503" 
d="M172 441l268 1q6 0 8.5 -3.5t2.5 -10.5l-3 -58q-1 -42 -4 -125q-4 -63 -4 -71q0 -49 10 -134q2 -17 2 -23q0 -17 -41 -17h-50q-25 0 -30 20q0 27 -4 118l-3 71q-130 -29 -130 -165q0 -26 -6 -33q-10 -11 -48 -11h-38q-28 0 -35 1q-20 5 -20 23q0 54 52 115q63 74 155 85
v5q-80 16 -120 41q-60 36 -60 103q0 44 26 58q19 10 72 10zM278 410q-41 0 -52 -6q-19 -9 -19 -44q0 -50 34.5 -81.5t84.5 -31.5q0 85 7 163h-55zM290 662q15 0 39 -6q29 -8 31 -17q6 -25 -70 -85q-15 -12 -48 -30q-37 -20 -49 -20q-16 0 -16 5q0 13 17.5 29.5t39.5 38.5
q9 11 41 66q11 19 15 19z" />
    <glyph glyph-name="mu" unicode="&#x3bc;" horiz-adv-x="503" 
d="M172 441l268 1q6 0 8.5 -3.5t2.5 -10.5l-3 -58q-1 -42 -4 -125q-4 -63 -4 -71q0 -49 10 -134q2 -17 2 -23q0 -17 -41 -17h-50q-25 0 -30 20q0 27 -4 118l-3 71q-130 -29 -130 -165q0 -26 -6 -33q-10 -11 -48 -11h-38q-28 0 -35 1q-20 5 -20 23q0 54 52 115q63 74 155 85
v5q-80 16 -120 41q-60 36 -60 103q0 44 26 58q19 10 72 10zM278 410q-41 0 -52 -6q-19 -9 -19 -44q0 -50 34.5 -81.5t84.5 -31.5q0 85 7 163h-55zM290 662q15 0 39 -6q29 -8 31 -17q6 -25 -70 -85q-15 -12 -48 -30q-37 -20 -49 -20q-16 0 -16 5q0 13 17.5 29.5t39.5 38.5
q9 11 41 66q11 19 15 19z" />
  </font>
</defs>
</svg>
